<svg width="1728" height="819" viewBox="0 0 1728 819" fill="none" xmlns="http://www.w3.org/2000/svg">
<g opacity="0.3">
<mask id="mask0_13_454" style="mask-type:luminance" maskUnits="userSpaceOnUse" x="-313" y="0" width="2078" height="819">
<path d="M1765 0H-313V819H1765V0Z" fill="white"/>
<path d="M-312.5 818.5V0.5H1764.5V818.5H-312.5Z" stroke="white"/>
</mask>
<g mask="url(#mask0_13_454)">
<path d="M-303.649 1001.33C-255.509 901.207 -66.4106 809.991 128.056 792.894C220.18 784.807 314.902 791.154 402.525 767.608C497.42 742.014 557.163 687.858 586.428 636.568C615.693 585.278 622.966 533.374 655.521 482.289C688.077 431.203 755.265 377.866 852.931 356.982C921.332 342.342 992.85 346.028 1062.12 334.459C1157.19 318.591 1235.98 276.105 1295.89 232.084C1355.63 188.063 1403.25 140.254 1470.62 98.8943C1570.01 37.8788 1711.32 -5.93771 1852.8 -19.5536" stroke="url(#paint0_linear_13_454)" stroke-opacity="0.2" stroke-miterlimit="10"/>
<path d="M-320.62 980.241C-284.601 910.011 -180.528 844.287 -54.1161 805.077C-1.30025 788.697 55.6716 776.924 113.163 771.703C170.654 766.482 229.185 766.994 285.81 763.206C320.443 760.953 354.211 757.063 386.939 749.18C443.219 735.564 487.203 712.223 520.97 684.479C543.309 666.154 560.626 645.986 573.44 626.126C589.891 600.429 600.454 574.119 611.537 547.911C621.927 523.443 632.663 498.873 649.287 474.611C663.66 453.726 683.747 432.534 709.376 413.493C745.741 386.568 793.188 364.046 850.333 352.477C888.084 344.901 926.527 342.752 965.143 340.602C996.832 338.861 1028.35 337.121 1059.52 332.514C1115.97 324.017 1166.71 306.716 1211.56 285.217C1242.21 270.577 1270.09 253.992 1295.03 236.998C1331.56 212.121 1363.77 185.708 1398.58 159.807C1422.13 142.301 1446.55 124.898 1474.25 108.518C1514.43 84.6642 1560.49 63.1654 1610.19 45.045C1686.04 17.199 1770.02 -2.96883 1853.83 -12.6945" stroke="url(#paint1_linear_13_454)" stroke-opacity="0.2" stroke-miterlimit="10"/>
<path d="M-337.59 959.254C-299.493 889.434 -195.247 824.017 -69.0083 784.5C-16.1925 767.915 40.433 755.937 98.0975 750.511C155.589 745.085 214.639 745.393 271.091 742.424C305.724 740.581 339.145 737.612 371.354 730.753C426.941 718.877 470.233 697.891 505.212 671.785C528.243 654.586 546.426 635.135 560.279 615.786C578.115 590.806 589.891 565.11 602.186 539.312C613.615 515.253 625.39 490.991 642.88 467.137C657.945 446.56 678.725 425.675 705.047 407.043C742.451 380.733 790.418 359.029 847.736 348.177C885.66 341.011 924.276 339.168 962.719 337.53C994.408 336.2 1025.92 334.869 1057.09 330.671C1113.55 323.198 1164.28 307.33 1209.65 287.264C1240.48 273.546 1268.88 258.087 1294.33 242.015C1331.74 218.571 1364.98 193.284 1400.83 168.202C1425.07 151.208 1450.18 134.316 1478.06 118.141C1518.76 94.697 1565.17 73.1982 1614.69 54.7707C1690.37 26.5152 1772.79 5.32358 1855.39 -5.8353" stroke="url(#paint2_linear_13_454)" stroke-opacity="0.2" stroke-miterlimit="10"/>
<path d="M-354.56 938.164C-314.212 868.652 -209.793 803.644 -83.9006 763.82C-31.2579 747.133 25.3676 734.848 83.0321 729.217C140.697 723.586 199.92 723.791 256.199 721.641C291.005 720.31 323.907 718.161 355.597 712.325C410.317 702.19 453.262 683.66 489.454 658.988C513.178 642.813 532.226 624.078 547.119 605.343C566.167 581.183 579.501 555.896 592.662 530.507C605.303 506.756 617.944 482.903 636.3 459.357C652.231 438.984 673.704 418.611 700.545 400.389C738.814 374.692 787.474 353.91 844.965 343.673C882.889 337.018 921.678 335.483 960.121 334.152C991.811 333.128 1023.33 332.207 1054.32 328.624C1110.6 322.174 1161.69 307.739 1207.23 289.209C1238.4 276.515 1267.15 262.08 1293.29 246.929C1331.39 224.816 1365.85 200.757 1402.74 176.495C1427.67 160.115 1453.3 143.632 1481.53 127.662C1522.91 104.525 1569.49 83.1285 1618.67 64.4963C1694 35.8313 1775.22 13.5135 1856.26 1.02377" stroke="url(#paint3_linear_13_454)" stroke-opacity="0.2" stroke-miterlimit="10"/>
<path d="M-371.531 917.075C-329.105 847.87 -224.512 783.271 -98.6201 743.14C-45.9775 726.351 10.4749 713.861 68.3125 708.026C125.977 702.19 185.72 702.395 241.652 700.859C276.459 699.938 309.014 698.607 340.184 693.795C394.039 685.503 436.638 669.328 473.869 646.191C498.285 631.142 518.373 613.124 534.131 594.799C554.391 571.355 568.937 546.58 583.483 521.703C596.99 498.362 610.844 474.713 630.065 451.679C646.689 431.613 668.855 411.548 696.388 393.837C735.524 368.755 784.876 348.792 842.541 339.168C880.637 332.924 919.427 331.797 957.697 330.876C989.386 330.159 1020.73 329.75 1051.73 326.679C1108.01 321.253 1159.09 308.251 1205.15 291.155C1236.49 279.484 1265.76 266.073 1292.6 251.843C1331.56 231.163 1366.89 208.231 1404.81 184.787C1430.27 168.919 1456.59 152.846 1485.34 137.285C1527.41 114.558 1574.17 93.0589 1623 74.2219C1698.16 45.045 1777.99 21.8059 1857.64 7.8829" stroke="url(#paint4_linear_13_454)" stroke-opacity="0.2" stroke-miterlimit="10"/>
<path d="M-388.501 895.986C-343.997 827.088 -239.231 762.898 -113.512 722.46C-61.0428 705.568 -4.59046 692.772 53.2472 686.731C111.085 680.691 171.001 680.794 226.76 680.077C261.567 679.668 293.776 679.156 324.599 675.368C377.762 668.816 419.668 654.995 458.284 633.496C483.22 619.471 504.346 602.272 521.144 584.459C542.789 561.834 558.721 537.469 574.306 513.104C589.025 490.172 603.744 466.83 623.831 444.103C641.321 424.344 664.179 404.586 692.232 387.285C732.407 362.817 782.279 343.673 840.117 334.766C878.386 328.931 917.176 328.214 955.445 327.702C987.135 327.395 1018.48 327.293 1049.48 324.836C1105.58 320.434 1156.84 308.865 1203.25 293.202C1234.94 282.555 1264.55 270.168 1291.91 256.859C1331.74 237.51 1368.1 215.807 1407.06 193.182C1433.21 177.928 1460.05 162.264 1489.15 146.908C1531.92 124.488 1578.85 103.092 1627.33 84.0499C1702.14 54.4635 1780.58 30.2006 1859.03 14.8444" stroke="url(#paint5_linear_13_454)" stroke-opacity="0.2" stroke-miterlimit="10"/>
<path d="M-405.644 874.999C-359.062 806.51 -254.123 742.628 -128.404 701.883C-75.9347 684.889 -19.8288 671.785 38.1821 665.642C96.0197 659.5 156.455 658.886 211.868 659.397C246.675 659.807 278.537 659.807 308.842 657.043C361.138 652.231 402.525 640.868 442.353 620.802C467.982 607.903 489.974 591.318 507.81 574.119C530.668 552.313 547.985 528.46 564.609 504.402C580.367 481.879 596.125 458.845 617.251 436.527C635.607 417.076 658.985 397.625 687.73 380.835C728.771 356.879 779.335 338.657 837.346 330.467C875.789 325.143 914.579 324.529 952.848 324.631C984.538 324.734 1015.88 324.938 1046.7 322.993C1102.81 319.512 1154.07 309.48 1201 295.352C1232.86 285.729 1263.16 274.365 1291.04 261.978C1331.56 243.96 1369.14 223.485 1409.14 201.781C1435.98 187.142 1463.34 171.785 1492.78 156.736C1536.07 134.623 1583.35 113.227 1631.49 93.9803C1706.12 63.882 1783.18 38.5954 1860.07 21.9083" stroke="url(#paint6_linear_13_454)" stroke-opacity="0.2" stroke-miterlimit="10"/>
<path d="M-422.615 853.91C-373.955 785.728 -268.67 722.256 -143.297 681.203C-91.0006 664.107 -34.8946 650.696 23.2894 644.348C81.3003 638.001 142.082 637.796 197.149 638.615C232.128 639.127 263.298 640.356 293.256 638.513C344.687 635.442 385.554 626.535 426.595 608.005C452.916 596.13 475.601 580.364 494.822 563.677C518.892 542.588 537.594 519.246 555.431 495.7C572.228 473.484 589.198 450.86 611.017 428.849C630.065 409.602 654.136 390.561 683.574 374.181C725.48 350.839 776.738 333.435 834.922 325.86C873.538 320.946 912.5 320.843 950.597 321.253C982.286 321.56 1013.46 322.379 1044.28 320.946C1100.21 318.489 1151.64 309.889 1198.92 297.195C1230.95 288.595 1261.78 278.255 1290.35 266.789C1331.74 250.205 1370.18 230.856 1411.22 209.971C1438.75 195.843 1466.63 180.999 1496.42 166.257C1540.4 144.554 1587.85 123.157 1635.64 103.706C1710.11 73.1982 1785.78 46.8878 1861.28 28.7674" stroke="url(#paint7_linear_13_454)" stroke-opacity="0.2" stroke-miterlimit="10"/>
<path d="M-439.585 832.821C-388.674 764.946 -283.389 701.985 -158.189 660.421C-106.066 643.12 -49.9599 629.606 8.22405 622.952C66.4081 616.4 127.363 616.093 182.257 617.731C217.236 618.755 248.06 620.7 277.498 619.983C328.236 618.755 368.411 612.203 410.837 595.106C437.677 584.357 461.401 569.205 481.662 553.132C506.944 532.862 527.031 509.93 546.08 486.896C564.089 465.09 581.925 442.772 604.61 421.171C624.524 402.231 649.287 383.599 679.245 367.629C722.19 344.901 774.14 328.317 832.324 321.458C871.114 316.953 910.076 317.158 948 318.079C979.689 318.796 1010.86 319.922 1041.51 319.103C1097.44 317.567 1148.7 310.503 1196.67 299.242C1229.05 291.666 1260.22 282.35 1289.31 271.703C1331.39 256.449 1371.05 238.329 1413.13 218.264C1441.35 204.75 1469.75 190.213 1500.05 175.778C1544.56 154.382 1592.18 133.088 1639.8 113.329C1713.92 82.4119 1788.2 55.0778 1862.32 35.4218" stroke="url(#paint8_linear_13_454)" stroke-opacity="0.2" stroke-miterlimit="10"/>
<path d="M-456.556 811.731C-403.567 744.164 -298.108 681.613 -172.909 639.741C-120.785 622.338 -64.8527 608.517 -6.66868 601.76C51.5153 595.003 112.989 594.696 167.537 596.949C202.517 598.382 232.994 601.248 261.913 601.555C311.785 602.067 351.44 597.87 395.078 582.411C422.438 572.686 447.201 558.353 468.501 542.69C494.995 523.136 516.468 500.716 536.728 478.091C555.777 456.695 574.652 434.684 598.202 413.493C618.982 394.86 644.265 376.535 674.915 361.077C718.726 338.964 771.369 323.198 829.726 316.953C868.516 312.858 907.651 313.472 945.575 314.701C977.264 315.725 1008.43 317.26 1039.08 317.055C1095.02 316.544 1146.27 310.913 1194.59 301.085C1227.14 294.533 1258.66 286.241 1288.62 276.515C1331.56 262.694 1372.26 245.7 1415.2 226.454C1444.12 213.452 1473.21 199.427 1503.69 185.196C1548.89 164.21 1596.68 142.813 1644.13 122.952C1718.07 91.5233 1790.97 63.1654 1863.7 42.1785" stroke="url(#paint9_linear_13_454)" stroke-opacity="0.2" stroke-miterlimit="10"/>
<path d="M-473.526 790.642C-418.459 723.484 -312.827 661.24 -187.801 619.062C-135.851 601.556 -80.0912 587.428 -21.5609 580.466C36.7963 573.505 98.4436 573.095 152.818 576.167C187.798 578.112 217.929 581.797 246.501 583.026C295.68 585.278 334.47 583.537 379.493 569.614C407.373 561.015 433.175 547.297 455.513 532.248C483.22 513.513 506.078 491.502 527.377 469.389C547.638 448.403 567.379 426.699 591.795 405.815C613.268 387.489 639.243 369.471 670.586 354.422C715.263 332.821 768.599 317.977 826.956 312.449C865.918 308.763 905.054 309.787 942.977 311.425C974.667 312.858 1005.66 314.803 1036.31 315.008C1092.07 315.52 1143.5 311.322 1192.34 303.03C1225.07 297.399 1257.1 290.233 1287.75 281.429C1331.39 268.939 1373.12 253.173 1417.28 234.848C1446.89 222.461 1476.5 208.845 1507.33 194.82C1553.22 174.14 1601.36 152.846 1648.29 132.678C1722.05 100.942 1793.57 71.4578 1864.74 49.0377" stroke="url(#paint10_linear_13_454)" stroke-opacity="0.2" stroke-miterlimit="10"/>
<path d="M-490.496 769.655C-433.351 702.804 -327.546 640.97 -202.52 598.484C-150.57 580.876 -94.9835 566.543 -36.4531 559.377C21.904 552.211 84.0709 551.801 138.099 555.487C173.252 557.944 202.863 562.346 230.916 564.701C279.23 568.693 317.5 569.307 363.908 556.92C392.481 549.344 419.148 536.445 442.526 521.908C471.445 503.89 495.861 482.493 518.2 460.688C539.499 440.008 560.279 418.611 585.562 398.239C607.9 380.221 634.568 362.612 666.43 347.973C712.146 326.986 766.001 312.96 824.532 308.149C863.667 304.975 902.803 306.204 940.726 308.354C972.416 310.094 1003.41 312.449 1033.89 313.268C1089.65 314.803 1141.08 312.039 1190.26 305.18C1223.33 300.573 1255.72 294.328 1287.06 286.548C1331.56 275.389 1374.34 260.852 1419.53 243.345C1449.66 231.572 1479.97 218.264 1511.31 204.648C1557.89 184.275 1606.03 163.083 1652.79 142.608C1726.38 110.36 1796.34 79.9549 1866.3 56.1016" stroke="url(#paint11_linear_13_454)" stroke-opacity="0.2" stroke-miterlimit="10"/>
<path d="M-507.467 748.566C-448.244 682.022 -342.093 620.597 -217.413 577.805C-165.636 560.094 -110.049 545.454 -51.519 538.083C7.01132 530.712 69.5245 530.2 123.206 534.705C158.359 537.674 187.624 542.895 215.158 546.171C262.605 551.904 300.182 554.975 347.976 544.123C377.068 537.571 404.602 525.389 429.192 511.466C459.323 494.267 485.124 473.28 508.675 451.986C531.014 431.715 553.006 410.626 578.981 390.561C602.185 372.747 629.372 355.548 661.928 341.318C708.509 320.946 763.057 307.739 821.761 303.542C861.069 300.778 900.378 302.416 938.128 304.975C969.818 307.125 1000.81 309.889 1031.12 311.22C1086.71 313.677 1138.31 312.346 1188.01 307.023C1221.26 303.44 1254.16 298.218 1286.02 291.359C1331.22 281.634 1375.2 268.223 1421.26 251.535C1452.09 240.274 1482.91 227.477 1514.6 214.066C1561.7 194.103 1610.19 172.911 1656.6 152.232C1729.85 119.574 1798.59 88.0426 1866.99 62.8583" stroke="url(#paint12_linear_13_454)" stroke-opacity="0.2" stroke-miterlimit="10"/>
<path d="M-524.437 727.477C-463.136 661.343 -356.811 600.225 -232.304 557.125C-180.527 539.312 -125.114 524.365 -66.4107 516.789C-7.88035 509.213 54.9791 508.701 108.488 513.923C143.64 517.301 172.559 523.443 199.573 527.743C246.328 535.319 283.04 540.642 332.392 531.429C362.004 525.9 390.576 514.537 416.205 501.023C447.548 484.541 474.735 464.066 499.325 443.284C522.876 423.423 545.733 402.641 572.747 382.985C596.644 365.479 624.698 348.587 657.772 334.869C705.393 315.11 760.46 302.723 819.337 299.242C858.819 296.888 898.128 298.935 935.705 301.904C967.394 304.361 998.391 307.535 1028.7 309.48C1084.28 312.96 1135.89 313.063 1185.93 309.173C1219.35 306.613 1252.77 302.416 1285.33 296.478C1331.22 288.083 1376.24 275.901 1423.52 260.033C1455.03 249.386 1486.37 236.896 1518.41 223.792C1566.2 204.136 1614.86 182.944 1660.93 162.06C1734 128.993 1801.37 96.4373 1868.38 69.8198" stroke="url(#paint13_linear_13_454)" stroke-opacity="0.2" stroke-miterlimit="10"/>
<path d="M-541.58 706.388C-478.028 640.56 -371.704 579.852 -247.197 536.445C-195.593 518.427 -140.353 503.276 -81.4763 495.597C-22.7728 487.817 40.433 487.203 93.5952 493.14C128.748 497.031 157.321 503.89 183.815 509.316C229.704 518.632 265.723 526.31 316.461 518.632C346.592 514.127 376.203 503.48 403.044 490.581C435.599 474.918 464.172 454.852 489.974 434.48C514.563 415.028 538.46 394.553 566.34 375.204C591.103 358.005 619.676 341.421 653.443 328.214C701.93 309.07 757.689 297.502 816.739 294.738C856.394 292.895 895.703 295.147 933.28 298.526C964.97 301.392 995.794 304.975 1026.1 307.432C1081.68 311.937 1133.11 313.472 1183.85 311.118C1217.62 309.582 1251.39 306.408 1284.64 301.392C1331.22 294.328 1377.45 283.374 1425.77 268.325C1457.98 258.19 1490.01 246.212 1522.22 233.313C1570.71 214.066 1619.54 192.875 1665.26 171.785C1738.16 138.206 1803.96 104.73 1869.59 76.5766" stroke="url(#paint14_linear_13_454)" stroke-opacity="0.2" stroke-miterlimit="10"/>
<path d="M-558.551 685.298C-492.921 619.778 -386.423 559.479 -262.089 515.765C-210.659 497.645 -155.419 482.289 -96.5421 474.303C-37.6655 466.42 25.8867 465.704 78.8757 472.358C114.202 476.76 142.255 484.438 168.403 490.786C213.426 501.842 248.752 511.773 300.875 505.835C331.526 502.354 362.003 492.526 390.056 480.139C423.824 465.192 453.955 445.741 480.796 425.778C506.597 406.736 531.36 386.568 560.106 367.629C585.735 350.737 615 334.561 649.287 321.662C698.812 303.132 755.092 292.383 814.315 290.233C853.97 288.8 893.452 291.462 931.029 295.25C962.718 298.423 993.542 302.416 1023.67 305.385C1079.09 310.913 1130.69 313.882 1181.77 312.96C1215.72 312.346 1250 310.299 1283.77 306.204C1331.22 300.471 1378.49 290.745 1427.67 276.617C1460.57 267.096 1493.13 255.528 1525.86 242.936C1575.04 223.997 1624.04 202.907 1669.41 181.511C1741.97 147.522 1806.56 112.92 1870.8 83.4356" stroke="url(#paint15_linear_13_454)" stroke-opacity="0.2" stroke-miterlimit="10"/>
<path d="M-575.521 664.311C-507.813 599.099 -400.969 539.209 -276.982 495.188C-225.551 476.965 -170.484 461.302 -111.608 453.214C-52.7309 445.127 11.1676 444.41 63.9834 451.679C99.3094 456.593 127.016 465.09 152.645 472.461C196.975 485.258 231.609 497.543 285.117 493.14C316.287 490.581 347.804 481.572 376.896 469.799C411.875 455.569 443.392 436.629 471.445 417.076C498.285 398.341 524.26 378.583 553.699 360.053C580.193 343.468 609.978 327.6 644.784 315.213C695.176 297.297 752.148 287.367 811.544 285.933C851.372 284.91 890.854 287.981 928.431 292.178C960.121 295.761 990.945 300.164 1021.08 303.644C1076.49 310.196 1128.09 314.496 1179.7 315.11C1213.81 315.52 1248.62 314.394 1283.08 311.322C1331.22 306.92 1379.53 298.423 1429.92 285.114C1463.52 276.208 1496.59 264.947 1529.67 252.662C1579.36 234.132 1628.72 212.94 1673.91 191.441C1746.3 156.941 1809.5 121.417 1872.19 90.4995" stroke="url(#paint16_linear_13_454)" stroke-opacity="0.2" stroke-miterlimit="10"/>
<path d="M-592.492 643.222C-522.706 578.419 -415.689 518.837 -291.701 474.508C-240.444 456.183 -185.377 440.213 -126.327 431.92C-67.2772 423.628 -3.03234 422.809 49.4372 430.896C84.7632 436.322 112.124 445.536 137.233 454.033C180.698 468.57 214.638 483.108 269.532 480.446C301.221 478.91 333.604 470.618 363.908 459.357C400.1 445.946 433.001 427.416 462.093 408.374C490.146 390.049 516.987 370.598 547.291 352.375C574.479 335.995 605.129 320.536 640.455 308.558C691.885 291.257 749.55 282.248 808.946 281.429C848.948 280.917 888.43 284.295 925.834 288.902C957.523 292.793 988.174 297.604 1018.3 301.699C1073.54 309.173 1125.32 315.008 1177.27 317.158C1211.73 318.591 1246.71 318.489 1282.04 316.339C1330.87 313.268 1380.4 305.999 1431.83 293.509C1466.11 285.114 1499.71 274.365 1533.13 262.285C1583.52 244.164 1632.87 222.87 1677.9 201.167C1749.93 166.155 1811.75 129.709 1873.23 97.3587" stroke="url(#paint17_linear_13_454)" stroke-opacity="0.2" stroke-miterlimit="10"/>
<path d="M-609.462 622.133C-537.598 557.637 -430.408 498.464 -306.593 453.828C-255.336 435.401 -200.442 419.226 -141.392 410.626C-82.3425 402.129 -17.7514 401.31 34.545 410.012C69.871 415.95 96.7118 425.982 121.475 435.401C164.247 451.781 197.322 468.468 253.774 467.547C285.983 467.035 319.404 459.561 350.747 448.812C387.978 436.118 422.438 418.202 452.742 399.57C481.834 381.654 509.714 362.51 540.884 344.697C568.937 328.624 600.107 313.575 636.126 302.006C688.422 285.217 746.779 277.129 806.349 276.924C846.523 276.822 886.179 280.508 923.409 285.626C955.099 289.926 985.75 295.045 1015.71 299.754C1070.95 308.251 1122.72 315.52 1175.19 319.103C1209.83 321.458 1245.33 322.481 1281.17 321.15C1330.87 319.41 1381.44 313.37 1433.73 301.699C1468.71 293.919 1502.83 283.579 1536.77 271.806C1587.85 253.992 1637.38 232.801 1682.05 210.893C1753.74 175.471 1814.35 137.899 1874.44 104.218" stroke="url(#paint18_linear_13_454)" stroke-opacity="0.2" stroke-miterlimit="10"/>
<path d="M-626.432 601.044C-552.316 536.855 -445.126 478.091 -321.312 433.149C-270.228 414.516 -215.507 398.136 -156.284 389.435C-97.0612 380.733 -32.1237 379.914 19.8263 389.332C55.3255 395.782 81.6468 406.634 105.89 417.076C147.796 435.196 180.179 455.774 238.016 454.852C270.745 454.34 305.205 448.607 337.587 438.472C376.03 426.494 412.049 409.091 443.392 390.868C473.523 373.362 502.615 354.525 534.651 337.019C563.57 321.253 595.432 306.511 631.97 295.454C685.306 279.279 744.182 272.113 803.752 272.522C844.1 272.932 883.755 276.924 920.986 282.35C952.675 286.957 983.326 292.588 1013.11 297.707C1068.18 307.33 1119.95 315.827 1172.94 320.946C1207.75 324.324 1243.77 326.269 1280.31 325.962C1330.7 325.553 1382.3 320.741 1435.81 309.889C1471.31 302.621 1506.29 292.69 1540.4 281.224C1592.18 263.82 1641.88 242.526 1686.21 220.413C1757.73 184.48 1816.95 145.987 1875.48 110.872" stroke="url(#paint19_linear_13_454)" stroke-opacity="0.2" stroke-miterlimit="10"/>
<path d="M-643.402 580.057C-567.209 516.175 -459.846 457.923 -336.205 412.571C-285.121 393.837 -230.573 377.15 -171.177 368.243C-111.781 359.336 -46.67 358.517 5.10683 368.652C40.606 375.614 66.581 387.182 90.478 398.751C131.519 418.611 163.381 439.803 222.431 442.26C255.679 443.591 291.005 437.756 324.599 428.235C364.254 416.973 401.659 400.082 434.041 382.371C465.384 365.274 495.342 346.744 528.243 329.648C558.028 314.189 590.41 299.856 627.641 289.107C681.842 273.648 741.412 267.199 801.154 268.223C841.675 269.042 881.33 273.444 918.561 279.279C950.251 284.295 980.728 290.336 1010.69 295.966C1065.75 306.511 1117.53 316.544 1171.04 323.096C1206.02 327.395 1242.56 330.467 1279.79 331.081C1330.87 332.002 1383.69 328.419 1438.06 318.489C1474.25 311.834 1509.75 302.313 1544.21 291.052C1596.68 274.058 1646.55 252.764 1690.54 230.446C1761.71 194.103 1819.55 154.586 1876.87 118.038" stroke="url(#paint20_linear_13_454)" stroke-opacity="0.2" stroke-miterlimit="10"/>
<path d="M-660.546 558.968C-582.275 495.495 -474.565 437.551 -351.27 391.892C-300.359 373.055 -245.812 356.06 -186.416 347.051C-127.019 337.94 -61.3892 337.121 -9.9587 347.87C25.5405 355.344 51.1691 367.731 74.5466 380.221C114.894 401.822 145.891 425.266 206.5 429.361C240.267 431.715 276.632 426.597 311.439 417.588C352.306 407.043 391.095 390.765 424.69 373.464C457.072 356.777 488.069 338.554 521.836 321.765C552.313 306.613 585.561 292.588 623.312 282.35C678.552 267.506 738.641 261.875 798.556 263.616C839.077 264.844 878.906 269.656 916.137 275.901C947.826 281.327 978.303 287.674 1008.09 293.919C1063.16 305.487 1114.93 316.851 1168.79 325.041C1204.11 330.364 1241 334.357 1278.75 335.995C1330.7 338.247 1384.55 335.892 1439.97 326.781C1476.85 320.639 1512.87 311.63 1547.68 300.573C1600.84 283.886 1650.88 262.694 1694.52 240.069C1765.52 203.317 1821.97 162.776 1877.73 124.693" stroke="url(#paint21_linear_13_454)" stroke-opacity="0.2" stroke-miterlimit="10"/>
<path d="M-677.516 537.878C-597.167 474.713 -489.284 417.178 -365.989 371.212C-315.078 352.272 -260.704 335.073 -201.308 325.757C-141.738 316.441 -75.9351 315.52 -24.6778 327.088C10.8214 335.073 36.1037 348.28 58.9617 361.793C98.4437 385.135 128.921 410.729 190.742 416.666C225.202 419.942 262.259 415.643 298.278 407.248C340.184 397.42 380.705 381.654 415.339 364.762C448.933 348.485 480.969 330.569 515.429 314.189C546.772 299.345 580.54 285.729 618.983 275.798C675.089 261.568 735.87 256.757 795.959 259.214C836.653 260.954 876.482 266.073 913.539 272.727C945.229 278.46 975.706 285.319 1005.32 292.076C1060.21 304.668 1112.16 317.465 1166.54 327.088C1202.03 333.435 1239.44 338.452 1277.88 341.011C1330.52 344.594 1385.42 343.468 1442.04 335.176C1479.62 329.648 1516.16 321.048 1551.49 310.299C1605.17 294.021 1655.39 272.727 1698.85 250C1769.68 212.735 1824.74 171.171 1879.12 131.757" stroke="url(#paint22_linear_13_454)" stroke-opacity="0.2" stroke-miterlimit="10"/>
<path d="M-694.487 516.789C-612.059 453.931 -504.003 396.806 -380.882 350.43C-330.144 331.388 -275.943 313.882 -216.2 304.361C-156.631 294.84 -90.3083 293.919 -39.3973 306.101C-3.89811 314.598 21.0379 328.521 43.3764 343.161C82.1657 368.345 111.95 396.089 175.156 403.767C210.136 407.964 248.233 404.484 285.29 396.703C328.409 387.592 370.315 372.44 406.161 355.958C440.967 340.09 473.869 322.481 509.195 306.511C541.404 291.974 575.864 278.665 614.826 269.246C671.971 255.63 733.272 251.638 793.534 254.709C834.402 256.859 874.23 262.387 911.288 269.451C942.977 275.594 973.281 282.76 1003.07 290.131C1057.96 303.747 1109.91 317.874 1164.63 329.033C1200.48 336.302 1238.23 342.342 1277.36 345.925C1330.87 350.737 1386.8 350.942 1444.29 343.468C1482.56 338.554 1519.8 330.262 1555.29 319.82C1609.67 303.849 1660.06 282.657 1703.35 259.623C1773.83 221.949 1827.51 179.361 1880.5 138.513" stroke="url(#paint23_linear_13_454)" stroke-opacity="0.2" stroke-miterlimit="10"/>
<path d="M-711.457 495.7C-626.779 433.251 -518.723 376.433 -395.601 329.75C-345.036 310.606 -290.835 292.792 -231.093 283.169C-171.35 273.546 -104.854 272.522 -54.1163 285.422C-18.6172 294.431 5.97248 309.172 27.9646 324.733C65.8881 351.658 95.1533 381.654 159.571 390.97C195.07 396.191 234.206 393.427 272.303 386.261C316.633 377.866 359.925 363.226 396.81 347.154C432.655 331.695 466.596 314.394 502.788 298.73C535.863 284.5 570.842 271.499 610.497 262.592C668.508 249.488 730.502 246.417 790.937 250.205C831.977 252.764 871.979 258.599 908.864 266.073C940.553 272.522 970.857 280.2 1000.47 287.981C1055.19 302.621 1107.31 318.079 1162.55 330.876C1198.57 339.066 1236.84 346.232 1276.67 350.737C1330.87 356.879 1388.02 358.21 1446.55 351.658C1485.51 347.256 1523.26 339.475 1559.1 329.238C1614.17 313.677 1664.74 292.383 1707.68 269.246C1777.99 231.06 1830.28 187.551 1881.89 145.27" stroke="url(#paint24_linear_13_454)" stroke-opacity="0.2" stroke-miterlimit="10"/>
<path d="M-728.427 474.713C-641.671 412.571 -533.268 356.163 -410.493 309.173C-359.929 289.824 -305.901 271.908 -246.158 261.978C-186.416 252.15 -119.573 251.228 -69.0086 264.639C-33.5094 274.16 -9.2661 289.721 12.2066 306.306C49.2642 334.971 78.0099 367.117 143.64 378.276C179.832 384.418 219.66 382.473 258.969 375.921C304.512 368.243 349.362 354.115 387.286 338.554C424.17 323.403 459.323 306.511 496.207 291.257C530.148 277.334 565.82 264.639 605.995 256.142C664.872 243.653 727.731 241.4 788.166 245.905C829.38 248.976 869.382 255.119 906.266 263.001C937.956 269.861 968.26 277.846 997.698 286.241C1052.42 301.802 1104.54 318.796 1160.13 333.026C1196.49 342.24 1235.11 350.327 1275.46 355.856C1330.52 363.227 1388.54 365.888 1448.28 360.258C1487.93 356.47 1526.2 349.099 1562.57 339.066C1618.33 323.812 1669.07 302.621 1711.66 279.177C1781.8 240.581 1832.71 195.946 1882.75 152.334" stroke="url(#paint25_linear_13_454)" stroke-opacity="0.2" stroke-miterlimit="10"/>
<path d="M-745.397 453.624C-656.563 391.789 -547.987 335.79 -425.385 288.493C-374.994 269.042 -320.966 250.819 -261.05 240.786C-201.135 230.753 -133.946 229.73 -83.7276 243.96C13.4189 271.396 22.2504 345.311 128.055 365.581C207.366 380.835 305.205 358.108 378.108 329.852C451.011 301.597 516.468 266.482 601.839 249.59C702.622 229.627 813.102 239.25 903.842 259.725C994.581 280.2 1071.81 310.811 1158.05 334.971C1244.29 359.029 1345.24 376.945 1450.36 368.448C1552.52 360.258 1646.03 327.907 1715.82 288.8C1785.61 249.693 1835.13 204.136 1883.97 159.091" stroke="url(#paint26_linear_13_454)" stroke-opacity="0.2" stroke-miterlimit="10"/>
<path d="M-729.986 447.993C-642.364 386.773 -535.52 331.286 -414.823 284.091C-363.219 263.923 -307.632 245.291 -246.331 235.36C-186.762 225.737 -120.439 224.918 -70.5672 238.943C25.5403 265.97 36.6229 337.94 141.042 358.21C204.595 370.598 279.749 358.927 344.86 339.578C360.271 334.971 375.164 329.955 389.19 324.734C461.92 297.502 527.204 263.104 611.883 246.212C669.374 234.746 729.809 232.596 787.993 236.486C830.765 239.353 872.152 245.393 910.249 253.481C1000.12 272.42 1077.01 301.085 1162.55 324.017C1187.14 330.569 1212.94 336.609 1239.61 341.83C1306.11 354.729 1378.32 361.998 1452.43 356.572C1465.59 355.651 1478.58 354.218 1491.4 352.58C1577.29 341.114 1655.38 313.677 1716.51 280.815C1786.3 243.141 1836.86 198.505 1885.35 153.87" stroke="url(#paint27_linear_13_454)" stroke-opacity="0.2" stroke-miterlimit="10"/>
<path d="M-714.401 442.362C-627.991 381.654 -522.879 326.679 -404.086 279.689C-351.444 258.804 -294.125 239.66 -231.266 229.934C-172.043 220.721 -106.586 220.004 -56.887 233.825C38.3547 260.34 51.6885 330.569 154.55 350.737C217.409 363.124 291.698 352.375 356.462 333.743C371.874 329.34 386.593 324.529 400.619 319.41C473.003 293.1 538.287 259.623 622.1 242.629C678.898 231.06 738.641 228.501 796.132 231.675C838.212 234.029 879.252 239.455 917.002 246.826C1005.84 264.128 1082.38 290.95 1167.4 312.551C1191.82 318.693 1217.45 324.529 1243.94 329.443C1310.26 341.728 1381.61 349.099 1455.03 344.082C1468.02 343.263 1480.83 341.933 1493.47 340.397C1578.33 329.75 1656.25 303.849 1717.55 272.113C1787.51 235.872 1839.11 192.056 1887.08 147.83" stroke="url(#paint28_linear_13_454)" stroke-opacity="0.2" stroke-miterlimit="10"/>
<path d="M-698.989 436.629C-613.791 376.535 -510.584 321.969 -393.696 275.184C-340.015 253.685 -280.792 234.029 -216.72 224.406C-157.843 215.602 -93.2523 215.09 -43.8998 228.706C50.3029 254.811 65.8879 323.096 167.537 343.263C229.877 355.651 303.126 345.72 367.717 328.01C382.956 323.812 397.675 319.103 411.702 314.189C483.739 288.8 549.196 256.142 631.97 239.148C688.249 227.58 747.126 224.611 803.924 227.068C845.484 228.911 886.005 233.722 923.409 240.377C1011.38 256.142 1087.57 281.019 1171.73 301.392C1196.15 307.227 1221.43 312.653 1247.75 317.363C1313.73 329.033 1384.38 336.404 1456.94 332.002C1469.75 331.286 1482.56 330.159 1495.03 328.624C1579.02 318.796 1656.42 294.431 1718.07 263.82C1788.2 229.013 1840.67 186.118 1888.29 142.301" stroke="url(#paint29_linear_13_454)" stroke-opacity="0.2" stroke-miterlimit="10"/>
<path d="M-683.404 430.999C-599.418 371.519 -497.943 317.363 -382.96 270.68C-328.066 248.464 -267.285 228.296 -201.655 218.878C-143.124 210.483 -79.399 210.074 -30.3928 223.485C62.9441 249.078 80.6071 315.622 180.871 335.688C242.691 348.075 314.902 339.066 379.32 322.072C394.558 318.079 409.277 313.575 423.131 308.865C494.822 284.398 560.279 252.559 642.187 235.463C697.773 223.894 755.957 220.413 812.063 222.154C853.104 223.485 893.105 227.682 929.99 233.62C1016.92 247.748 1092.77 270.884 1176.41 289.824C1200.65 295.25 1225.93 300.368 1251.91 304.873C1317.54 316.032 1387.5 323.3 1459.19 319.41C1472 318.693 1484.47 317.772 1496.94 316.441C1580.06 307.535 1656.94 284.603 1718.94 255.119C1789.07 221.642 1842.58 179.771 1889.85 136.364" stroke="url(#paint30_linear_13_454)" stroke-opacity="0.2" stroke-miterlimit="10"/>
<path d="M-667.992 425.368C-585.218 366.4 -485.647 312.756 -372.396 266.277C-316.463 243.345 -253.95 222.666 -186.762 213.452C-128.578 205.467 -65.718 205.262 -17.0582 218.468C75.4128 243.653 95.1538 308.251 194.205 328.317C255.333 340.806 326.851 332.514 390.922 316.339C405.988 312.449 420.707 308.251 434.56 303.644C506.078 280.2 571.362 249.078 652.577 231.982C707.644 220.413 764.962 216.421 820.376 217.547C860.724 218.366 900.206 221.949 936.917 227.17C1022.98 239.558 1098.31 261.056 1181.43 278.665C1205.5 283.784 1230.61 288.595 1256.41 292.793C1321.69 303.44 1391.13 310.606 1461.96 307.33C1474.6 306.716 1487.07 305.897 1499.36 304.668C1581.44 296.58 1657.98 275.184 1720.15 246.724C1790.46 214.68 1845 173.73 1891.76 130.733" stroke="url(#paint31_linear_13_454)" stroke-opacity="0.2" stroke-miterlimit="10"/>
<path d="M-652.58 419.738C-571.019 361.384 -473.179 308.046 -362.006 261.875C-305.035 238.124 -240.79 217.137 -172.216 208.026C-114.378 200.348 -52.5576 200.45 -4.07095 213.452C87.361 238.124 109.353 300.983 207.019 320.946C267.628 333.435 338.106 326.064 401.832 310.708C416.897 307.023 431.443 302.928 445.297 298.628C516.468 276.105 581.752 245.802 662.101 228.706C716.476 217.137 773.101 212.735 827.648 213.145C867.477 213.554 906.439 216.421 942.804 221.028C1028 231.879 1102.98 251.433 1185.41 267.813C1209.31 272.522 1234.24 277.027 1259.87 281.019C1324.81 291.052 1393.56 298.218 1463.52 295.454C1475.98 294.942 1488.45 294.226 1500.57 293.202C1581.79 286.036 1657.64 266.073 1720.32 238.739C1790.63 208.026 1846.21 167.997 1892.62 125.512" stroke="url(#paint32_linear_13_454)" stroke-opacity="0.2" stroke-miterlimit="10"/>
<path d="M-636.995 414.107C-556.646 356.265 -460.711 303.44 -351.27 257.371C-293.086 232.903 -227.283 211.404 -157.15 202.498C-99.659 195.229 -38.7043 195.434 9.60917 208.231C100.175 232.494 124.246 293.407 220.526 313.37C280.615 325.86 350.055 319.41 413.607 304.77C428.499 301.29 443.045 297.399 456.899 293.202C527.724 271.601 593.008 242.117 672.491 225.02C726.173 213.452 782.106 208.538 835.96 208.231C875.269 208.128 913.712 210.381 949.731 214.271C1033.89 223.485 1108.7 241.196 1190.43 256.245C1214.16 260.647 1238.92 264.844 1264.37 268.53C1328.97 278.051 1397.02 285.114 1466.11 282.862C1478.41 282.453 1490.7 281.838 1502.83 280.917C1583.17 274.672 1658.5 256.142 1721.53 229.934C1791.84 200.655 1848.47 161.548 1894.53 119.472" stroke="url(#paint33_linear_13_454)" stroke-opacity="0.2" stroke-miterlimit="10"/>
<path d="M-621.583 408.374C-542.446 351.146 -448.417 298.628 -340.707 252.866C-281.484 227.682 -213.949 205.671 -142.431 196.97C-85.2863 190.008 -25.1975 190.52 22.7697 203.112C112.297 226.863 138.618 286.036 233.687 305.897C293.083 318.489 361.83 312.858 425.036 299.037C439.928 295.761 454.301 292.076 468.154 287.981C538.806 267.404 603.917 238.636 682.535 221.437C735.697 209.869 790.764 204.443 843.926 203.522C882.542 202.805 920.639 204.443 956.138 207.719C1039.43 215.295 1113.72 231.163 1194.93 244.983C1218.66 248.976 1243.08 252.866 1268.36 256.347C1332.6 265.254 1399.96 272.318 1468.37 270.68C1480.66 270.372 1492.78 269.861 1504.73 269.042C1584.21 263.616 1659.02 246.621 1722.4 221.54C1792.71 193.694 1850.37 155.508 1896.09 113.841" stroke="url(#paint34_linear_13_454)" stroke-opacity="0.2" stroke-miterlimit="10"/>
<path d="M-605.999 402.743C-528.074 346.13 -435.949 293.919 -329.971 248.464C-269.709 222.563 -200.442 200.041 -127.366 191.544C-70.5672 184.992 -11.3442 185.606 36.2766 197.993C124.938 221.335 153.337 278.562 247.02 298.423C305.897 311.015 373.605 306.306 436.638 293.202C451.357 290.131 465.73 286.548 479.583 282.76C549.889 263.104 615 235.155 692.751 217.956C745.221 206.388 799.595 200.45 852.065 198.915C890.161 197.789 927.739 198.71 962.891 201.269C1045.15 207.207 1119.26 221.232 1199.61 233.722C1223.16 237.408 1247.58 240.888 1272.51 244.164C1336.58 252.457 1403.08 259.521 1470.62 258.395C1482.74 258.19 1494.69 257.78 1506.63 257.166C1585.08 252.559 1659.54 237.101 1723.27 213.145C1793.74 186.63 1852.45 149.365 1897.47 108.21" stroke="url(#paint35_linear_13_454)" stroke-opacity="0.2" stroke-miterlimit="10"/>
<path d="M-590.587 397.113C-513.874 341.011 -423.654 289.209 -319.581 243.96C-258.28 217.342 -187.109 194.308 -112.647 186.015C-56.3677 179.771 2.16259 180.692 49.4371 192.875C137.233 215.704 167.71 271.191 260.008 290.95C318.365 303.542 385.034 299.754 447.894 287.367C462.613 284.5 476.986 281.122 490.666 277.436C560.625 258.702 625.736 231.572 702.795 214.373C754.745 202.703 808.254 196.458 859.857 194.103C897.434 192.465 934.319 192.772 969.299 194.717C1050.69 199.119 1124.28 211.2 1204.11 222.461C1227.49 225.737 1251.73 229.013 1276.67 231.982C1340.39 239.762 1406.2 246.724 1472.87 246.212C1484.82 246.11 1496.76 245.802 1508.54 245.291C1586.12 241.605 1660.06 227.58 1723.96 204.75C1794.44 179.566 1854.18 143.325 1898.86 102.58" stroke="url(#paint36_linear_13_454)" stroke-opacity="0.2" stroke-miterlimit="10"/>
<path d="M-575.002 391.482C-499.501 335.995 -411.186 284.5 -308.845 239.558C-246.505 212.121 -173.602 188.677 -97.7547 180.692C-41.8218 174.754 15.8427 175.88 62.7709 187.961C149.527 210.381 182.429 263.923 273.342 283.681C331.006 296.273 396.983 293.304 459.323 281.838C473.869 279.177 488.241 276.003 501.922 272.522C571.535 254.709 636.818 228.399 712.839 211.2C764.096 199.529 816.912 192.772 867.823 189.803C904.88 187.653 941.245 187.346 975.879 188.575C1056.23 191.339 1129.65 201.679 1208.79 211.609C1231.99 214.578 1256.06 217.445 1280.83 220.209C1344.2 227.375 1409.49 234.132 1475.29 234.336C1487.24 234.336 1499.02 234.234 1510.62 233.722C1587.33 230.856 1660.58 218.366 1725 196.662C1795.48 172.911 1856.26 137.592 1900.59 97.2563" stroke="url(#paint37_linear_13_454)" stroke-opacity="0.2" stroke-miterlimit="10"/>
<path d="M-559.59 385.851C-485.302 330.978 -398.892 279.791 -298.282 235.155C-234.903 207.002 -160.268 183.047 -82.8625 175.266C-27.276 169.738 29.5226 171.069 76.1045 182.842C161.995 204.75 196.975 256.552 286.502 276.208C343.647 288.902 408.585 286.752 470.751 276.003C485.297 273.546 499.497 270.475 513.177 267.199C582.444 250.409 647.728 224.918 722.882 207.514C773.62 195.843 825.57 188.677 875.788 184.992C912.153 182.33 948.172 181.409 982.286 181.92C1061.77 183.047 1134.67 191.544 1213.29 200.143C1236.49 202.703 1260.22 205.364 1284.81 207.924C1347.84 214.476 1412.43 221.437 1477.37 222.051C1489.14 222.154 1500.75 222.154 1512.35 221.847C1588.02 219.799 1660.93 208.845 1725.69 188.268C1796.17 165.848 1858.16 131.552 1901.97 91.6256" stroke="url(#paint38_linear_13_454)" stroke-opacity="0.2" stroke-miterlimit="10"/>
<path d="M-544.178 380.221C-471.101 325.86 -386.596 274.979 -287.891 230.651C-223.473 201.679 -147.107 177.211 -68.1426 169.738C-12.9024 164.517 43.0304 166.052 89.4391 177.723C174.291 199.119 211.522 249.078 299.837 268.734C356.462 281.429 420.361 280.2 482.354 270.168C496.727 267.813 510.927 265.049 524.607 261.875C593.7 246.007 658.811 221.335 733.1 203.931C783.145 192.26 834.402 184.582 883.928 180.18C919.773 177.006 955.272 175.471 989.04 175.266C1067.48 174.857 1140.21 181.409 1218.14 188.78C1241.17 190.929 1264.89 193.284 1289.14 195.639C1352 201.679 1415.72 208.538 1479.79 209.664C1491.4 209.869 1503 209.971 1514.43 209.766C1589.24 208.64 1661.62 199.119 1726.73 179.668C1797.21 158.579 1860.24 125.205 1903.71 85.7903" stroke="url(#paint39_linear_13_454)" stroke-opacity="0.2" stroke-miterlimit="10"/>
<path d="M-528.592 374.488C-456.728 320.741 -374.128 270.168 -277.154 226.146C-211.697 196.458 -133.599 171.478 -53.2498 164.21C1.64405 159.296 56.7111 161.138 102.773 172.502C186.759 193.489 226.068 241.605 312.998 261.159C368.931 273.853 431.963 273.444 493.784 264.332C508.157 262.182 522.183 259.623 535.863 256.654C604.61 241.707 669.721 217.854 743.144 200.45C792.669 188.78 843.061 180.59 891.721 175.573C927.047 171.888 961.853 169.738 995.448 168.816C1073.03 166.769 1145.41 171.478 1222.47 177.621C1245.33 179.463 1268.88 181.409 1292.95 183.558C1355.46 188.984 1418.49 195.843 1481.87 197.481C1493.3 197.789 1504.73 197.993 1516.16 197.891C1590.1 197.584 1661.79 189.496 1727.25 171.171C1797.73 151.515 1861.8 119.062 1904.92 80.0573" stroke="url(#paint40_linear_13_454)" stroke-opacity="0.2" stroke-miterlimit="10"/>
<path d="M-513.181 368.857C-442.529 315.622 -362.007 265.356 -266.592 221.744C-200.096 191.237 -120.266 165.745 -38.3581 158.784C16.0162 154.177 70.3905 156.327 116.107 167.486C199.227 187.961 240.613 234.234 326.158 253.685C381.571 266.482 443.565 266.892 505.039 258.497C519.239 256.552 533.265 254.095 546.945 251.331C615.346 237.305 680.457 214.271 753.187 196.867C802.02 185.196 851.719 176.597 899.686 170.864C934.319 166.667 968.779 163.902 1002.03 162.367C1078.57 158.784 1150.6 161.548 1227.14 166.359C1249.83 167.793 1273.21 169.431 1297.1 171.376C1359.27 176.187 1421.61 183.047 1484.12 185.299C1495.55 185.708 1506.81 186.015 1518.06 186.118C1590.97 186.63 1662.31 180.078 1728.12 162.879C1798.59 144.554 1863.7 113.124 1906.48 74.5291" stroke="url(#paint41_linear_13_454)" stroke-opacity="0.2" stroke-miterlimit="10"/>
<path d="M-497.596 363.227C-428.329 310.606 -349.538 260.647 -256.028 217.342C-188.493 186.118 -106.932 160.115 -23.6385 153.358C30.3895 149.058 83.8979 151.413 129.268 162.469C211.349 182.535 254.987 226.965 339.319 246.314C394.213 259.111 455.34 260.34 516.468 252.764C530.668 251.024 544.521 248.771 558.201 246.212C626.256 233.108 691.367 210.893 763.231 193.386C811.371 181.716 860.377 172.604 907.652 166.155C941.766 161.548 975.706 158.067 1008.43 155.815C1084.11 150.594 1155.8 151.413 1231.65 155.098C1254.33 156.224 1277.54 157.555 1301.09 159.193C1362.91 163.493 1424.55 170.352 1486.2 173.014C1497.46 173.526 1508.54 173.935 1519.8 174.14C1591.83 175.471 1662.49 170.352 1728.81 154.382C1799.29 137.387 1865.61 106.982 1907.86 68.796" stroke="url(#paint42_linear_13_454)" stroke-opacity="0.2" stroke-miterlimit="10"/>
<path d="M-482.185 357.596C-413.957 305.589 -337.417 255.835 -245.466 212.838C-176.892 180.794 -93.5986 154.279 -8.74691 147.83C44.9348 143.735 97.4043 146.499 142.601 157.248C223.816 176.802 269.532 219.39 352.479 238.739C406.68 251.535 466.942 253.685 527.897 246.929C541.923 245.393 555.777 243.345 569.457 240.888C637.165 228.706 702.275 207.309 773.274 189.803C820.895 178.133 869.035 168.612 915.617 161.445C949.211 156.327 982.459 152.232 1015.01 149.263C1089.65 142.506 1160.99 141.38 1236.32 143.735C1258.83 144.451 1281.86 145.475 1305.24 146.908C1366.72 150.594 1427.84 157.453 1488.63 160.729C1499.71 161.343 1510.79 161.855 1521.7 162.162C1592.87 164.414 1663 160.729 1729.67 145.884C1800.15 130.221 1867.51 100.737 1909.42 63.063" stroke="url(#paint43_linear_13_454)" stroke-opacity="0.2" stroke-miterlimit="10"/>
<path d="M-466.6 351.965C-399.584 300.471 -324.949 251.024 -234.729 208.436C-165.116 175.573 -80.0916 148.546 6.31857 142.404C59.6539 138.616 111.258 141.585 156.108 152.232C236.284 171.376 284.251 212.121 365.813 231.368C419.494 244.164 478.717 247.236 539.499 241.196C553.525 239.865 567.379 237.92 580.886 235.667C648.247 224.406 713.358 203.829 783.491 186.323C830.419 174.549 877.866 164.619 923.582 156.839C956.484 151.208 989.386 146.499 1021.59 142.813C1095.36 134.418 1166.36 131.45 1241 132.576C1263.34 132.883 1286.19 133.599 1309.4 134.828C1370.7 137.899 1430.96 144.758 1490.88 148.546C1501.96 149.263 1512.87 149.877 1523.6 150.389C1593.74 153.46 1663.35 151.208 1730.54 137.592C1800.84 123.26 1869.42 94.7993 1910.98 57.5348" stroke="url(#paint44_linear_13_454)" stroke-opacity="0.2" stroke-miterlimit="10"/>
<path d="M-451.188 346.335C-385.384 295.454 -312.827 246.212 -224.339 204.033C-153.86 170.352 -67.1039 142.813 20.8648 136.978C73.6806 133.497 124.592 136.773 169.269 147.113C248.579 165.745 298.797 204.648 378.973 223.894C432.136 236.793 490.32 240.581 550.928 235.36C564.781 234.132 578.635 232.494 592.142 230.446C659.33 220.106 724.441 200.348 793.534 182.842C839.943 171.069 886.525 160.729 931.548 152.129C963.93 145.987 996.313 140.663 1028 136.261C1100.73 126.331 1171.56 121.826 1245.5 121.314C1267.66 121.11 1290.35 121.724 1313.38 122.645C1374.34 125.102 1433.9 131.961 1492.95 136.364C1503.86 137.183 1514.6 137.899 1525.34 138.513C1594.6 142.404 1663.7 141.687 1731.06 129.197C1801.36 116.196 1870.98 88.7592 1912.19 51.9042" stroke="url(#paint45_linear_13_454)" stroke-opacity="0.2" stroke-miterlimit="10"/>
<path d="M-435.776 340.602C-371.185 290.336 -300.533 241.4 -213.776 199.427C-142.258 164.926 -53.7702 136.875 35.7569 131.347C88.2264 128.174 138.272 131.654 182.602 141.892C261.047 160.115 313.343 197.072 392.134 216.318C444.603 229.218 502.095 233.927 562.184 229.525C576.037 228.501 589.717 227.068 603.224 225.123C670.066 215.704 735.177 196.765 803.578 179.259C849.294 167.486 895.183 156.634 939.514 147.42C971.376 140.766 1003.24 134.828 1034.58 129.812C1106.45 118.243 1176.75 111.486 1250 110.053C1272.17 109.644 1294.68 109.746 1317.36 110.463C1377.97 112.305 1436.85 119.165 1495.21 124.079C1505.94 125 1516.68 125.819 1527.24 126.638C1595.64 131.347 1664.04 132.064 1731.92 120.803C1802.23 109.132 1873.06 82.6167 1913.75 46.2735" stroke="url(#paint46_linear_13_454)" stroke-opacity="0.2" stroke-miterlimit="10"/>
<path d="M-420.191 334.971C-356.812 285.217 -288.238 236.589 -203.04 195.024C-130.483 159.705 -40.2632 131.142 50.6493 125.921C102.772 122.952 151.952 126.843 195.936 136.875C273.342 154.586 327.889 189.803 405.468 208.947C457.418 221.847 513.87 227.375 573.786 223.792C587.466 222.973 601.146 221.642 614.653 220.004C681.149 211.507 746.26 193.489 813.795 175.778C858.991 164.005 904.015 152.744 947.653 142.711C978.823 135.647 1010.34 128.993 1041.34 123.26C1112.16 110.156 1182.29 101.351 1254.85 98.7919C1276.84 97.9729 1299.18 97.7682 1321.69 98.28C1381.95 99.6109 1440.14 106.47 1497.63 111.794C1508.19 112.817 1518.76 113.739 1529.32 114.66C1596.68 120.188 1664.74 122.338 1732.96 112.305C1803.27 101.863 1875.13 76.4742 1915.48 40.5406" stroke="url(#paint47_linear_13_454)" stroke-opacity="0.2" stroke-miterlimit="10"/>
<path d="M-404.778 329.34C-342.611 280.2 -276.115 231.777 -192.476 190.622C-119.053 154.484 -26.9286 125.307 65.5424 120.598C117.319 117.936 165.633 122.031 209.271 131.859C285.81 149.16 342.436 182.432 418.629 201.576C470.06 214.578 525.473 220.823 585.216 218.059C598.896 217.445 612.403 216.318 625.91 214.783C692.059 207.207 757.17 190.008 823.839 172.297C868.343 160.524 912.674 148.751 955.446 138.104C986.096 130.528 1016.92 123.26 1047.74 116.81C1117.7 102.17 1187.32 91.4209 1259.35 87.633C1281.17 86.5069 1303.34 85.8927 1325.68 86.1998C1385.77 86.9164 1443.08 93.8779 1499.71 99.7133C1510.27 100.839 1520.66 101.966 1531.05 102.887C1597.55 109.234 1664.91 112.817 1733.66 103.911C1803.96 94.7993 1876.87 70.434 1916.87 34.9099" stroke="url(#paint48_linear_13_454)" stroke-opacity="0.2" stroke-miterlimit="10"/>
<path d="M-389.193 323.71C-328.239 275.082 -263.821 226.965 -181.913 186.22C-107.624 149.263 -13.5949 119.574 80.4346 115.172C131.692 112.715 179.313 117.219 222.605 126.843C298.278 143.632 356.982 175.164 431.79 194.205C482.528 207.207 537.075 214.373 596.645 212.428C610.152 211.916 623.658 210.995 636.992 209.664C702.796 203.01 767.906 186.63 833.71 168.919C877.521 157.146 921.159 144.963 963.238 133.599C993.369 125.512 1023.67 117.629 1053.98 110.463C1122.9 94.185 1192.34 81.5929 1263.68 76.4742C1285.5 74.9385 1307.32 74.1195 1329.49 74.1195C1389.23 74.2219 1445.85 81.1834 1501.79 87.5307C1512.18 88.7592 1522.57 89.9877 1532.78 91.1138C1598.41 98.28 1665.26 103.296 1734.35 95.6183C1804.66 87.8378 1878.77 64.4963 1918.25 29.2793" stroke="url(#paint49_linear_13_454)" stroke-opacity="0.2" stroke-miterlimit="10"/>
<path d="M-373.781 318.079C-314.039 270.065 -251.699 222.051 -171.349 181.716C-96.0219 143.837 -0.260765 113.636 95.1541 109.644C146.065 107.494 192.82 112.305 235.939 121.724C310.573 138.104 371.528 167.69 445.124 186.732C495.342 199.734 548.851 207.719 608.074 206.593C621.581 206.286 634.915 205.569 648.248 204.443C713.705 198.71 778.816 183.149 843.927 165.438C887.218 153.665 929.991 140.97 971.377 128.89C1000.99 120.291 1030.77 111.896 1060.73 104.013C1128.79 86.3022 1197.71 71.5602 1268.53 65.3153C1290.18 63.3702 1312 62.244 1333.82 62.0393C1393.21 61.425 1449.14 68.4889 1504.21 75.4504C1514.43 76.7813 1524.64 78.1122 1534.86 79.3407C1599.63 87.3259 1665.78 93.7755 1735.22 87.3259C1805.52 80.7739 1880.68 58.4562 1919.81 23.751" stroke="url(#paint50_linear_13_454)" stroke-opacity="0.2" stroke-miterlimit="10"/>
<path d="M-358.196 312.449C-299.666 265.049 -239.404 217.24 -160.613 177.314C-84.4198 138.616 13.2462 107.903 110.22 104.218C160.784 102.273 206.673 107.391 249.446 116.605C323.215 132.473 386.247 160.319 458.458 179.259C508.157 192.363 560.799 201.167 619.676 200.757C633.01 200.655 646.344 200.143 659.677 199.119C724.788 194.308 789.899 179.566 854.144 161.753C896.743 149.979 938.822 136.875 979.516 124.079C1008.44 114.967 1037.87 105.856 1067.49 97.3587C1134.67 78.0098 1203.25 61.425 1273.21 53.8493C1294.68 51.4947 1316.33 50.0614 1337.97 49.6519C1397.02 48.5258 1452.43 55.4873 1506.46 62.9607C1516.68 64.3939 1526.72 65.8272 1536.77 67.158C1600.49 75.9623 1666.3 83.8452 1736.08 78.624C1806.39 73.3005 1882.58 52.1089 1921.37 17.8133" stroke="url(#paint51_linear_13_454)" stroke-opacity="0.2" stroke-miterlimit="10"/>
<path d="M-342.785 306.715C-285.467 259.828 -227.282 212.326 -150.223 172.809C-73.1642 133.292 26.4066 101.966 124.765 98.6895C320.444 92.2399 437.851 193.489 630.758 195.024C751.802 195.946 874.75 157.35 987.135 119.472C1099.52 81.5929 1219.35 41.2571 1341.78 37.5716C1411.57 35.5241 1475.47 45.7616 1538.5 55.3849C1601.36 65.0081 1666.47 74.3243 1736.77 70.3316C1807.08 66.339 1884.31 46.1711 1922.75 12.285" stroke="url(#paint52_linear_13_454)" stroke-opacity="0.2" stroke-miterlimit="10"/>
</g>
</g>
<defs>
<linearGradient id="paint0_linear_13_454" x1="774.573" y1="-19.5536" x2="774.573" y2="1001.33" gradientUnits="userSpaceOnUse">
<stop stop-color="#E3E3E3"/>
<stop offset="1" stop-color="#F3D2FF"/>
</linearGradient>
<linearGradient id="paint1_linear_13_454" x1="766.607" y1="-12.6945" x2="766.607" y2="980.241" gradientUnits="userSpaceOnUse">
<stop stop-color="#E3E3E3"/>
<stop offset="1" stop-color="#F3D2FF"/>
</linearGradient>
<linearGradient id="paint2_linear_13_454" x1="758.901" y1="-5.8353" x2="758.901" y2="959.254" gradientUnits="userSpaceOnUse">
<stop stop-color="#E3E3E3"/>
<stop offset="1" stop-color="#F3D2FF"/>
</linearGradient>
<linearGradient id="paint3_linear_13_454" x1="750.849" y1="1.02377" x2="750.849" y2="938.164" gradientUnits="userSpaceOnUse">
<stop stop-color="#E3E3E3"/>
<stop offset="1" stop-color="#F3D2FF"/>
</linearGradient>
<linearGradient id="paint4_linear_13_454" x1="743.056" y1="7.8829" x2="743.056" y2="917.075" gradientUnits="userSpaceOnUse">
<stop stop-color="#E3E3E3"/>
<stop offset="1" stop-color="#F3D2FF"/>
</linearGradient>
<linearGradient id="paint5_linear_13_454" x1="735.264" y1="14.8444" x2="735.264" y2="895.986" gradientUnits="userSpaceOnUse">
<stop stop-color="#E3E3E3"/>
<stop offset="1" stop-color="#F3D2FF"/>
</linearGradient>
<linearGradient id="paint6_linear_13_454" x1="727.212" y1="21.9083" x2="727.212" y2="874.999" gradientUnits="userSpaceOnUse">
<stop stop-color="#E3E3E3"/>
<stop offset="1" stop-color="#F3D2FF"/>
</linearGradient>
<linearGradient id="paint7_linear_13_454" x1="719.333" y1="28.7674" x2="719.333" y2="853.91" gradientUnits="userSpaceOnUse">
<stop stop-color="#E3E3E3"/>
<stop offset="1" stop-color="#F3D2FF"/>
</linearGradient>
<linearGradient id="paint8_linear_13_454" x1="711.367" y1="35.4218" x2="711.367" y2="832.821" gradientUnits="userSpaceOnUse">
<stop stop-color="#E3E3E3"/>
<stop offset="1" stop-color="#F3D2FF"/>
</linearGradient>
<linearGradient id="paint9_linear_13_454" x1="703.574" y1="42.1785" x2="703.574" y2="811.731" gradientUnits="userSpaceOnUse">
<stop stop-color="#E3E3E3"/>
<stop offset="1" stop-color="#F3D2FF"/>
</linearGradient>
<linearGradient id="paint10_linear_13_454" x1="695.609" y1="49.0377" x2="695.609" y2="790.642" gradientUnits="userSpaceOnUse">
<stop stop-color="#E3E3E3"/>
<stop offset="1" stop-color="#F3D2FF"/>
</linearGradient>
<linearGradient id="paint11_linear_13_454" x1="687.903" y1="56.1016" x2="687.903" y2="769.655" gradientUnits="userSpaceOnUse">
<stop stop-color="#E3E3E3"/>
<stop offset="1" stop-color="#F3D2FF"/>
</linearGradient>
<linearGradient id="paint12_linear_13_454" x1="679.764" y1="62.8583" x2="679.764" y2="748.566" gradientUnits="userSpaceOnUse">
<stop stop-color="#E3E3E3"/>
<stop offset="1" stop-color="#F3D2FF"/>
</linearGradient>
<linearGradient id="paint13_linear_13_454" x1="671.972" y1="69.8198" x2="671.972" y2="727.477" gradientUnits="userSpaceOnUse">
<stop stop-color="#E3E3E3"/>
<stop offset="1" stop-color="#F3D2FF"/>
</linearGradient>
<linearGradient id="paint14_linear_13_454" x1="664.006" y1="76.5766" x2="664.006" y2="706.388" gradientUnits="userSpaceOnUse">
<stop stop-color="#E3E3E3"/>
<stop offset="1" stop-color="#F3D2FF"/>
</linearGradient>
<linearGradient id="paint15_linear_13_454" x1="656.127" y1="83.4356" x2="656.127" y2="685.298" gradientUnits="userSpaceOnUse">
<stop stop-color="#E3E3E3"/>
<stop offset="1" stop-color="#F3D2FF"/>
</linearGradient>
<linearGradient id="paint16_linear_13_454" x1="648.334" y1="90.4995" x2="648.334" y2="664.311" gradientUnits="userSpaceOnUse">
<stop stop-color="#E3E3E3"/>
<stop offset="1" stop-color="#F3D2FF"/>
</linearGradient>
<linearGradient id="paint17_linear_13_454" x1="640.368" y1="97.3587" x2="640.368" y2="643.222" gradientUnits="userSpaceOnUse">
<stop stop-color="#E3E3E3"/>
<stop offset="1" stop-color="#F3D2FF"/>
</linearGradient>
<linearGradient id="paint18_linear_13_454" x1="632.49" y1="104.218" x2="632.49" y2="622.133" gradientUnits="userSpaceOnUse">
<stop stop-color="#E3E3E3"/>
<stop offset="1" stop-color="#F3D2FF"/>
</linearGradient>
<linearGradient id="paint19_linear_13_454" x1="624.524" y1="110.872" x2="624.524" y2="601.044" gradientUnits="userSpaceOnUse">
<stop stop-color="#E3E3E3"/>
<stop offset="1" stop-color="#F3D2FF"/>
</linearGradient>
<linearGradient id="paint20_linear_13_454" x1="616.731" y1="118.038" x2="616.731" y2="580.057" gradientUnits="userSpaceOnUse">
<stop stop-color="#E3E3E3"/>
<stop offset="1" stop-color="#F3D2FF"/>
</linearGradient>
<linearGradient id="paint21_linear_13_454" x1="608.593" y1="124.693" x2="608.593" y2="558.968" gradientUnits="userSpaceOnUse">
<stop stop-color="#E3E3E3"/>
<stop offset="1" stop-color="#F3D2FF"/>
</linearGradient>
<linearGradient id="paint22_linear_13_454" x1="600.8" y1="131.757" x2="600.8" y2="537.878" gradientUnits="userSpaceOnUse">
<stop stop-color="#E3E3E3"/>
<stop offset="1" stop-color="#F3D2FF"/>
</linearGradient>
<linearGradient id="paint23_linear_13_454" x1="593.007" y1="138.513" x2="593.007" y2="516.789" gradientUnits="userSpaceOnUse">
<stop stop-color="#E3E3E3"/>
<stop offset="1" stop-color="#F3D2FF"/>
</linearGradient>
<linearGradient id="paint24_linear_13_454" x1="585.215" y1="145.27" x2="585.215" y2="495.7" gradientUnits="userSpaceOnUse">
<stop stop-color="#E3E3E3"/>
<stop offset="1" stop-color="#F3D2FF"/>
</linearGradient>
<linearGradient id="paint25_linear_13_454" x1="577.163" y1="152.334" x2="577.163" y2="474.713" gradientUnits="userSpaceOnUse">
<stop stop-color="#E3E3E3"/>
<stop offset="1" stop-color="#F3D2FF"/>
</linearGradient>
<linearGradient id="paint26_linear_13_454" x1="569.284" y1="159.091" x2="569.284" y2="453.624" gradientUnits="userSpaceOnUse">
<stop stop-color="#E3E3E3"/>
<stop offset="1" stop-color="#F3D2FF"/>
</linearGradient>
<linearGradient id="paint27_linear_13_454" x1="577.682" y1="153.87" x2="577.682" y2="447.993" gradientUnits="userSpaceOnUse">
<stop stop-color="#E3E3E3"/>
<stop offset="1" stop-color="#F3D2FF"/>
</linearGradient>
<linearGradient id="paint28_linear_13_454" x1="586.341" y1="147.83" x2="586.341" y2="442.362" gradientUnits="userSpaceOnUse">
<stop stop-color="#E3E3E3"/>
<stop offset="1" stop-color="#F3D2FF"/>
</linearGradient>
<linearGradient id="paint29_linear_13_454" x1="594.652" y1="142.301" x2="594.652" y2="436.629" gradientUnits="userSpaceOnUse">
<stop stop-color="#E3E3E3"/>
<stop offset="1" stop-color="#F3D2FF"/>
</linearGradient>
<linearGradient id="paint30_linear_13_454" x1="603.224" y1="136.364" x2="603.224" y2="430.999" gradientUnits="userSpaceOnUse">
<stop stop-color="#E3E3E3"/>
<stop offset="1" stop-color="#F3D2FF"/>
</linearGradient>
<linearGradient id="paint31_linear_13_454" x1="611.883" y1="130.733" x2="611.883" y2="425.368" gradientUnits="userSpaceOnUse">
<stop stop-color="#E3E3E3"/>
<stop offset="1" stop-color="#F3D2FF"/>
</linearGradient>
<linearGradient id="paint32_linear_13_454" x1="620.022" y1="125.512" x2="620.022" y2="419.738" gradientUnits="userSpaceOnUse">
<stop stop-color="#E3E3E3"/>
<stop offset="1" stop-color="#F3D2FF"/>
</linearGradient>
<linearGradient id="paint33_linear_13_454" x1="628.767" y1="119.472" x2="628.767" y2="414.107" gradientUnits="userSpaceOnUse">
<stop stop-color="#E3E3E3"/>
<stop offset="1" stop-color="#F3D2FF"/>
</linearGradient>
<linearGradient id="paint34_linear_13_454" x1="637.252" y1="113.841" x2="637.252" y2="408.374" gradientUnits="userSpaceOnUse">
<stop stop-color="#E3E3E3"/>
<stop offset="1" stop-color="#F3D2FF"/>
</linearGradient>
<linearGradient id="paint35_linear_13_454" x1="645.737" y1="108.21" x2="645.737" y2="402.743" gradientUnits="userSpaceOnUse">
<stop stop-color="#E3E3E3"/>
<stop offset="1" stop-color="#F3D2FF"/>
</linearGradient>
<linearGradient id="paint36_linear_13_454" x1="654.135" y1="102.58" x2="654.135" y2="397.113" gradientUnits="userSpaceOnUse">
<stop stop-color="#E3E3E3"/>
<stop offset="1" stop-color="#F3D2FF"/>
</linearGradient>
<linearGradient id="paint37_linear_13_454" x1="662.793" y1="97.2563" x2="662.793" y2="391.482" gradientUnits="userSpaceOnUse">
<stop stop-color="#E3E3E3"/>
<stop offset="1" stop-color="#F3D2FF"/>
</linearGradient>
<linearGradient id="paint38_linear_13_454" x1="671.192" y1="91.6256" x2="671.192" y2="385.851" gradientUnits="userSpaceOnUse">
<stop stop-color="#E3E3E3"/>
<stop offset="1" stop-color="#F3D2FF"/>
</linearGradient>
<linearGradient id="paint39_linear_13_454" x1="679.764" y1="85.7903" x2="679.764" y2="380.221" gradientUnits="userSpaceOnUse">
<stop stop-color="#E3E3E3"/>
<stop offset="1" stop-color="#F3D2FF"/>
</linearGradient>
<linearGradient id="paint40_linear_13_454" x1="688.163" y1="80.0573" x2="688.163" y2="374.488" gradientUnits="userSpaceOnUse">
<stop stop-color="#E3E3E3"/>
<stop offset="1" stop-color="#F3D2FF"/>
</linearGradient>
<linearGradient id="paint41_linear_13_454" x1="696.648" y1="74.5291" x2="696.648" y2="368.857" gradientUnits="userSpaceOnUse">
<stop stop-color="#E3E3E3"/>
<stop offset="1" stop-color="#F3D2FF"/>
</linearGradient>
<linearGradient id="paint42_linear_13_454" x1="705.133" y1="68.796" x2="705.133" y2="363.227" gradientUnits="userSpaceOnUse">
<stop stop-color="#E3E3E3"/>
<stop offset="1" stop-color="#F3D2FF"/>
</linearGradient>
<linearGradient id="paint43_linear_13_454" x1="713.618" y1="63.063" x2="713.618" y2="357.596" gradientUnits="userSpaceOnUse">
<stop stop-color="#E3E3E3"/>
<stop offset="1" stop-color="#F3D2FF"/>
</linearGradient>
<linearGradient id="paint44_linear_13_454" x1="722.19" y1="57.5348" x2="722.19" y2="351.965" gradientUnits="userSpaceOnUse">
<stop stop-color="#E3E3E3"/>
<stop offset="1" stop-color="#F3D2FF"/>
</linearGradient>
<linearGradient id="paint45_linear_13_454" x1="730.502" y1="51.9042" x2="730.502" y2="346.335" gradientUnits="userSpaceOnUse">
<stop stop-color="#E3E3E3"/>
<stop offset="1" stop-color="#F3D2FF"/>
</linearGradient>
<linearGradient id="paint46_linear_13_454" x1="738.987" y1="46.2735" x2="738.987" y2="340.602" gradientUnits="userSpaceOnUse">
<stop stop-color="#E3E3E3"/>
<stop offset="1" stop-color="#F3D2FF"/>
</linearGradient>
<linearGradient id="paint47_linear_13_454" x1="747.645" y1="40.5406" x2="747.645" y2="334.971" gradientUnits="userSpaceOnUse">
<stop stop-color="#E3E3E3"/>
<stop offset="1" stop-color="#F3D2FF"/>
</linearGradient>
<linearGradient id="paint48_linear_13_454" x1="756.045" y1="34.9099" x2="756.045" y2="329.34" gradientUnits="userSpaceOnUse">
<stop stop-color="#E3E3E3"/>
<stop offset="1" stop-color="#F3D2FF"/>
</linearGradient>
<linearGradient id="paint49_linear_13_454" x1="764.53" y1="29.2793" x2="764.53" y2="323.71" gradientUnits="userSpaceOnUse">
<stop stop-color="#E3E3E3"/>
<stop offset="1" stop-color="#F3D2FF"/>
</linearGradient>
<linearGradient id="paint50_linear_13_454" x1="773.015" y1="23.751" x2="773.015" y2="318.079" gradientUnits="userSpaceOnUse">
<stop stop-color="#E3E3E3"/>
<stop offset="1" stop-color="#F3D2FF"/>
</linearGradient>
<linearGradient id="paint51_linear_13_454" x1="781.587" y1="17.8133" x2="781.587" y2="312.449" gradientUnits="userSpaceOnUse">
<stop stop-color="#E3E3E3"/>
<stop offset="1" stop-color="#F3D2FF"/>
</linearGradient>
<linearGradient id="paint52_linear_13_454" x1="789.985" y1="12.285" x2="789.985" y2="306.715" gradientUnits="userSpaceOnUse">
<stop stop-color="#E3E3E3"/>
<stop offset="1" stop-color="#F3D2FF"/>
</linearGradient>
</defs>
</svg>
