<svg width="32" height="32" viewBox="0 0 32 32" fill="none" xmlns="http://www.w3.org/2000/svg">
<g clip-path="url(#clip0_13_484)">
<path d="M3.99996 25.3331H5.33329V8.47977C5.33333 8.05996 5.46548 7.6508 5.711 7.31027C5.95653 6.96974 6.30299 6.7151 6.70129 6.58244L17.368 3.02777C17.6686 2.92765 17.9887 2.90038 18.3019 2.94821C18.6151 2.99605 18.9125 3.11761 19.1695 3.3029C19.4265 3.48818 19.6359 3.73188 19.7802 4.01392C19.9246 4.29595 19.9999 4.60826 20 4.92511V25.3331H21.3333V13.3198C21.3334 13.2212 21.3553 13.1238 21.3975 13.0347C21.4397 12.9456 21.5012 12.867 21.5774 12.8045C21.6537 12.742 21.7429 12.6972 21.8385 12.6734C21.9342 12.6495 22.0339 12.6471 22.1306 12.6664L25.0586 13.2531C25.5118 13.3437 25.9197 13.5885 26.2129 13.9458C26.506 14.3031 26.6663 14.7509 26.6666 15.2131V25.3331H28C28.3536 25.3331 28.6927 25.4736 28.9428 25.7236C29.1928 25.9737 29.3333 26.3128 29.3333 26.6664C29.3333 27.0201 29.1928 27.3592 28.9428 27.6092C28.6927 27.8593 28.3536 27.9998 28 27.9998H3.99996C3.64634 27.9998 3.3072 27.8593 3.05715 27.6092C2.8071 27.3592 2.66663 27.0201 2.66663 26.6664C2.66663 26.3128 2.8071 25.9737 3.05715 25.7236C3.3072 25.4736 3.64634 25.3331 3.99996 25.3331Z" fill="white"/>
</g>
<defs>
<clipPath id="clip0_13_484">
<rect width="32" height="32" fill="white"/>
</clipPath>
</defs>
</svg>
