<svg width="24" height="24" viewBox="0 0 24 24" fill="none" xmlns="http://www.w3.org/2000/svg">
<g clip-path="url(#clip0_13_614)">
<path fill-rule="evenodd" clip-rule="evenodd" d="M16.552 22.1325C15.112 22.0795 11.031 21.5155 6.757 17.2425C2.484 12.9685 1.921 8.88848 1.867 7.44748C1.787 5.25148 3.469 3.11848 5.412 2.28548C5.64598 2.18445 5.9022 2.14598 6.15553 2.17386C6.40886 2.20173 6.65059 2.29499 6.857 2.44448C8.457 3.61048 9.561 5.37448 10.509 6.76148C10.7176 7.06621 10.8068 7.43703 10.7596 7.80328C10.7123 8.16953 10.532 8.50561 10.253 8.74748L8.302 10.1965C8.20774 10.2645 8.14139 10.3645 8.11528 10.4778C8.08916 10.5911 8.10505 10.71 8.16 10.8125C8.602 11.6155 9.388 12.8115 10.288 13.7115C11.189 14.6115 12.441 15.4495 13.3 15.9415C13.4077 16.0019 13.5345 16.0188 13.6543 15.9887C13.774 15.9586 13.8777 15.8837 13.944 15.7795L15.214 13.8465C15.4475 13.5363 15.7919 13.3286 16.1752 13.2667C16.5584 13.2048 16.9508 13.2936 17.27 13.5145C18.677 14.4885 20.319 15.5735 21.521 17.1125C21.6826 17.3204 21.7854 17.5679 21.8187 17.8291C21.8519 18.0904 21.8144 18.3557 21.71 18.5975C20.873 20.5505 18.755 22.2135 16.552 22.1325Z" fill="white"/>
</g>
<defs>
<clipPath id="clip0_13_614">
<rect width="24" height="24" fill="white"/>
</clipPath>
</defs>
</svg>
