<svg width="32" height="32" viewBox="0 0 32 32" fill="none" xmlns="http://www.w3.org/2000/svg">
<path d="M14.5465 6.2419C15.379 5.34445 15.7953 4.89572 16.1333 4.8402C16.2664 4.81834 16.3289 4.81848 16.4619 4.84093C16.7997 4.89795 17.2156 5.35029 18.0474 6.25496C18.8972 7.17925 19.9765 8.11427 21.0957 8.46512C21.9975 8.74779 23.2189 8.74333 24.2027 8.67049C24.9639 8.61412 25.3446 8.58593 25.6088 8.7357C25.6966 8.7855 25.7707 8.84336 25.8403 8.91654C26.0495 9.13661 26.1063 9.46635 26.2199 10.1258C26.6252 12.4791 27.1134 16.8106 25.886 19.6279C24.7549 22.2238 21.686 24.6387 19.3234 26.2012C18.2122 26.9361 17.6566 27.3035 16.7457 27.4251C16.5054 27.4572 16.086 27.4654 15.8446 27.4429C14.9296 27.3574 14.359 27.0117 13.2178 26.3202C10.6875 24.787 7.33446 22.3501 6.12628 19.6279C4.88125 16.8227 5.37369 12.4974 5.78509 10.1391C5.90115 9.47377 5.95918 9.14111 6.1723 8.92045C6.24284 8.84741 6.31881 8.78919 6.40767 8.74005C6.67613 8.5916 7.05767 8.62611 7.82073 8.69512C8.96109 8.79825 10.446 8.827 11.5153 8.46512C12.6216 8.09072 13.6963 7.15837 14.5465 6.2419Z" fill="white" stroke="white" stroke-width="1.5" stroke-linejoin="round"/>
</svg>
