<svg width="32" height="32" viewBox="0 0 32 32" fill="none" xmlns="http://www.w3.org/2000/svg">
<path d="M30.53 7.49996C30.386 7.41011 30.2216 7.35838 30.0521 7.34963C29.8826 7.34088 29.7137 7.37541 29.5613 7.44996C24.195 10.075 20.3625 8.84496 16.3113 7.54746C12.05 6.19121 7.65 4.78496 1.56125 7.75746C1.3931 7.83956 1.25135 7.9672 1.15213 8.12586C1.05292 8.28452 1.00021 8.46783 1 8.65496V23.6462C0.999976 23.8159 1.04312 23.9828 1.12538 24.1312C1.20764 24.2796 1.3263 24.4046 1.4702 24.4945C1.6141 24.5844 1.77851 24.6362 1.94794 24.645C2.11738 24.6538 2.28628 24.6194 2.43875 24.545C7.805 21.92 11.6375 23.15 15.695 24.4475C18.1 25.2162 20.55 26 23.32 26C25.4562 26 27.7863 25.535 30.4338 24.2425C30.6019 24.1604 30.7437 24.0327 30.8429 23.8741C30.9421 23.7154 30.9948 23.5321 30.995 23.345V8.35371C30.9965 8.1836 30.9546 8.01592 30.8732 7.86653C30.7919 7.71713 30.6737 7.59097 30.53 7.49996ZM6 19C6 19.2652 5.89464 19.5195 5.70711 19.7071C5.51957 19.8946 5.26522 20 5 20C4.73478 20 4.48043 19.8946 4.29289 19.7071C4.10536 19.5195 4 19.2652 4 19V11C4 10.7347 4.10536 10.4804 4.29289 10.2929C4.48043 10.1053 4.73478 9.99996 5 9.99996C5.26522 9.99996 5.51957 10.1053 5.70711 10.2929C5.89464 10.4804 6 10.7347 6 11V19ZM16 20C15.2089 20 14.4355 19.7654 13.7777 19.3258C13.1199 18.8863 12.6072 18.2616 12.3045 17.5307C12.0017 16.7998 11.9225 15.9955 12.0769 15.2196C12.2312 14.4437 12.6122 13.7309 13.1716 13.1715C13.731 12.6121 14.4437 12.2312 15.2196 12.0768C15.9956 11.9225 16.7998 12.0017 17.5307 12.3044C18.2616 12.6072 18.8864 13.1199 19.3259 13.7777C19.7654 14.4355 20 15.2088 20 16C20 17.0608 19.5786 18.0782 18.8284 18.8284C18.0783 19.5785 17.0609 20 16 20ZM28 21C28 21.2652 27.8946 21.5195 27.7071 21.7071C27.5196 21.8946 27.2652 22 27 22C26.7348 22 26.4804 21.8946 26.2929 21.7071C26.1054 21.5195 26 21.2652 26 21V13C26 12.7347 26.1054 12.4804 26.2929 12.2929C26.4804 12.1053 26.7348 12 27 12C27.2652 12 27.5196 12.1053 27.7071 12.2929C27.8946 12.4804 28 12.7347 28 13V21Z" fill="white"/>
</svg>
