<svg width="18" height="18" viewBox="0 0 18 18" fill="none" xmlns="http://www.w3.org/2000/svg">
<path d="M12.1 8.2V6.25M8.2 6.25V8.2H6.25M8.2 12.1H6.25M3 15.61V3.39C3 3.28657 3.04109 3.18737 3.11423 3.11423C3.18737 3.04109 3.28657 3 3.39 3H15.61C15.7134 3 15.8126 3.04109 15.8858 3.11423C15.9589 3.18737 16 3.28657 16 3.39V7.81C16 7.91343 15.9589 8.01263 15.8858 8.08577C15.8126 8.15891 15.7134 8.2 15.61 8.2H8.59C8.48657 8.2 8.38737 8.24109 8.31423 8.31423C8.24109 8.38737 8.2 8.48657 8.2 8.59V15.61C8.2 15.6612 8.18991 15.7119 8.17031 15.7592C8.15071 15.8066 8.12199 15.8496 8.08577 15.8858C8.04956 15.922 8.00656 15.9507 7.95925 15.9703C7.91193 15.9899 7.86122 16 7.81 16H3.39C3.33878 16 3.28807 15.9899 3.24075 15.9703C3.19344 15.9507 3.15044 15.922 3.11423 15.8858C3.07801 15.8496 3.04929 15.8066 3.02969 15.7592C3.01009 15.7119 3 15.6612 3 15.61Z" stroke="white" stroke-linecap="round" stroke-linejoin="round"/>
</svg>
