<svg width="18" height="18" viewBox="0 0 18 18" fill="none" xmlns="http://www.w3.org/2000/svg">
<path d="M14.625 2.39062H12.7969V1.6875C12.7969 1.57561 12.7524 1.46831 12.6733 1.38919C12.5942 1.31007 12.4869 1.26562 12.375 1.26562C12.2631 1.26562 12.1558 1.31007 12.0767 1.38919C11.9976 1.46831 11.9531 1.57561 11.9531 1.6875V2.39062H6.04688V1.6875C6.04688 1.57561 6.00243 1.46831 5.92331 1.38919C5.84419 1.31007 5.73689 1.26562 5.625 1.26562C5.51311 1.26562 5.40581 1.31007 5.32669 1.38919C5.24757 1.46831 5.20312 1.57561 5.20312 1.6875V2.39062H3.375C3.11393 2.39062 2.86355 2.49434 2.67894 2.67894C2.49434 2.86355 2.39062 3.11393 2.39062 3.375V14.625C2.39062 14.8861 2.49434 15.1365 2.67894 15.3211C2.86355 15.5057 3.11393 15.6094 3.375 15.6094H14.625C14.8861 15.6094 15.1365 15.5057 15.3211 15.3211C15.5057 15.1365 15.6094 14.8861 15.6094 14.625V3.375C15.6094 3.11393 15.5057 2.86355 15.3211 2.67894C15.1365 2.49434 14.8861 2.39062 14.625 2.39062ZM3.375 3.23438H5.20312V3.9375C5.20312 4.04939 5.24757 4.15669 5.32669 4.23581C5.40581 4.31493 5.51311 4.35938 5.625 4.35938C5.73689 4.35938 5.84419 4.31493 5.92331 4.23581C6.00243 4.15669 6.04688 4.04939 6.04688 3.9375V3.23438H11.9531V3.9375C11.9531 4.04939 11.9976 4.15669 12.0767 4.23581C12.1558 4.31493 12.2631 4.35938 12.375 4.35938C12.4869 4.35938 12.5942 4.31493 12.6733 4.23581C12.7524 4.15669 12.7969 4.04939 12.7969 3.9375V3.23438H14.625C14.6623 3.23438 14.6981 3.24919 14.7244 3.27556C14.7508 3.30194 14.7656 3.3377 14.7656 3.375V5.76562H3.23438V3.375C3.23438 3.3377 3.24919 3.30194 3.27556 3.27556C3.30194 3.24919 3.3377 3.23438 3.375 3.23438ZM14.625 14.7656H3.375C3.3377 14.7656 3.30194 14.7508 3.27556 14.7244C3.24919 14.6981 3.23438 14.6623 3.23438 14.625V6.60938H14.7656V14.625C14.7656 14.6623 14.7508 14.6981 14.7244 14.7244C14.6981 14.7508 14.6623 14.7656 14.625 14.7656ZM7.73438 8.4375V12.9375C7.73438 13.0494 7.68993 13.1567 7.61081 13.2358C7.53169 13.3149 7.42439 13.3594 7.3125 13.3594C7.20061 13.3594 7.09331 13.3149 7.01419 13.2358C6.93507 13.1567 6.89062 13.0494 6.89062 12.9375V9.12023L6.37594 9.37758C6.32635 9.40232 6.27238 9.41706 6.2171 9.42095C6.16182 9.42484 6.10632 9.4178 6.05376 9.40023C6.0012 9.38267 5.95261 9.35493 5.91078 9.31859C5.86894 9.28225 5.83467 9.23802 5.80992 9.18844C5.78518 9.13885 5.77044 9.08488 5.76655 9.0296C5.76266 8.97432 5.7697 8.91882 5.78727 8.86626C5.80483 8.8137 5.83257 8.76511 5.86891 8.72328C5.90525 8.68144 5.94948 8.64717 5.99906 8.62242L7.12406 8.05992C7.18839 8.02781 7.25986 8.01266 7.33169 8.01593C7.40351 8.01921 7.47331 8.04078 7.53446 8.07861C7.5956 8.11643 7.64606 8.16926 7.68105 8.23207C7.71604 8.29489 7.7344 8.3656 7.73438 8.4375ZM11.9229 10.4941L10.4062 12.5156H11.8125C11.9244 12.5156 12.0317 12.5601 12.1108 12.6392C12.1899 12.7183 12.2344 12.8256 12.2344 12.9375C12.2344 13.0494 12.1899 13.1567 12.1108 13.2358C12.0317 13.3149 11.9244 13.3594 11.8125 13.3594H9.5625C9.48415 13.3594 9.40735 13.3376 9.34071 13.2964C9.27406 13.2552 9.2202 13.1962 9.18516 13.1262C9.15013 13.0561 9.13529 12.9776 9.14233 12.8996C9.14937 12.8216 9.17799 12.7471 9.225 12.6844L11.25 9.98438C11.3083 9.90776 11.3503 9.81998 11.3733 9.72648C11.3963 9.63298 11.3998 9.53576 11.3837 9.44083C11.3676 9.34591 11.3321 9.2553 11.2796 9.17464C11.227 9.09397 11.1584 9.02497 11.0781 8.97189C10.9977 8.91882 10.9074 8.88281 10.8125 8.8661C10.7177 8.84938 10.6205 8.85232 10.5268 8.87474C10.4332 8.89715 10.3451 8.93855 10.2682 8.99639C10.1912 9.05422 10.1269 9.12724 10.0793 9.21094C10.0541 9.26339 10.0184 9.31008 9.97433 9.34806C9.93026 9.38604 9.87882 9.41449 9.82322 9.43164C9.76763 9.44878 9.70909 9.45424 9.65129 9.44767C9.59348 9.4411 9.53766 9.42265 9.48733 9.39347C9.437 9.3643 9.39325 9.32502 9.35882 9.27812C9.3244 9.23123 9.30005 9.17771 9.28729 9.12095C9.27454 9.06419 9.27367 9.0054 9.28473 8.94829C9.29579 8.89117 9.31855 8.83696 9.35156 8.78906C9.45759 8.60704 9.59967 8.4486 9.7691 8.32344C9.93853 8.19828 10.1317 8.10904 10.3369 8.0612C10.542 8.01336 10.7548 8.00791 10.9621 8.04521C11.1694 8.0825 11.3669 8.16175 11.5425 8.27808C11.7181 8.39442 11.8681 8.54539 11.9833 8.72175C12.0985 8.89811 12.1765 9.09614 12.2124 9.3037C12.2483 9.51125 12.2415 9.72396 12.1923 9.92879C12.1432 10.1336 12.0527 10.3262 11.9264 10.4948L11.9229 10.4941Z" fill="white"/>
</svg>
