<svg width="18" height="18" viewBox="0 0 18 18" fill="none" xmlns="http://www.w3.org/2000/svg">
<path fill-rule="evenodd" clip-rule="evenodd" d="M3.375 6.50391C3.375 3.50906 5.92109 1.125 9 1.125C12.0789 1.125 14.625 3.50906 14.625 6.50391C14.625 8.19227 13.7121 10.2811 12.7122 12.0867C11.6972 13.9192 10.5283 15.5703 9.90146 16.4168C9.79803 16.5582 9.66278 16.6733 9.50663 16.7528C9.34969 16.8326 9.17609 16.8743 9 16.8743C8.82391 16.8743 8.65031 16.8326 8.49337 16.7528C8.3372 16.6733 8.20194 16.5582 8.0985 16.4168C7.47168 15.5699 6.30279 13.9182 5.28782 12.0854C4.28789 10.2798 3.375 8.19107 3.375 6.50391ZM9 2.25C6.48907 2.25 4.5 4.18242 4.5 6.50391C4.5 7.87534 5.27461 9.73939 6.27199 11.5404C7.25166 13.3095 8.38638 14.9145 9 15.7437C9.6136 14.9149 10.7483 13.3104 11.728 11.5416C12.7254 9.74087 13.5 7.8766 13.5 6.50391C13.5 4.18242 11.5109 2.25 9 2.25Z" fill="white"/>
<path fill-rule="evenodd" clip-rule="evenodd" d="M9 5.625C8.37868 5.625 7.875 6.12868 7.875 6.75C7.875 7.37132 8.37868 7.875 9 7.875C9.62132 7.875 10.125 7.37132 10.125 6.75C10.125 6.12868 9.62132 5.625 9 5.625ZM6.75 6.75C6.75 5.50736 7.75736 4.5 9 4.5C10.2426 4.5 11.25 5.50736 11.25 6.75C11.25 7.99264 10.2426 9 9 9C7.75736 9 6.75 7.99264 6.75 6.75Z" fill="white"/>
</svg>
