<svg width="16" height="16" viewBox="0 0 16 16" fill="none" xmlns="http://www.w3.org/2000/svg">
<g clip-path="url(#clip0_49_33)">
<path d="M7.99992 1.33301C11.6819 1.33301 14.6666 4.31767 14.6666 7.99967C14.6666 11.6817 11.6819 14.6663 7.99992 14.6663C4.31792 14.6663 1.33325 11.6817 1.33325 7.99967C1.33325 4.31767 4.31792 1.33301 7.99992 1.33301ZM7.99992 3.99967C7.82311 3.99967 7.65354 4.06991 7.52851 4.19494C7.40349 4.31996 7.33325 4.48953 7.33325 4.66634V7.99967C7.33329 8.17647 7.40355 8.34601 7.52859 8.47101L9.52858 10.471C9.65432 10.5924 9.82272 10.6596 9.99752 10.6581C10.1723 10.6566 10.3395 10.5865 10.4631 10.4629C10.5867 10.3393 10.6568 10.1721 10.6584 9.99727C10.6599 9.82248 10.5927 9.65408 10.4713 9.52834L8.66658 7.72367V4.66634C8.66658 4.48953 8.59635 4.31996 8.47132 4.19494C8.3463 4.06991 8.17673 3.99967 7.99992 3.99967Z" fill="white"/>
</g>
<defs>
<clipPath id="clip0_49_33">
<rect width="16" height="16" fill="white"/>
</clipPath>
</defs>
</svg>
