<svg width="18" height="18" viewBox="0 0 18 18" fill="none" xmlns="http://www.w3.org/2000/svg">
<path d="M16.8173 6.83862C16.747 6.62243 16.6143 6.43188 16.4358 6.29099C16.2574 6.1501 16.0413 6.06517 15.8147 6.0469L11.6662 5.71221L10.0645 1.8387C9.9779 1.62763 9.83047 1.44709 9.64097 1.32003C9.45148 1.19297 9.22849 1.12512 9.00034 1.12512C8.77219 1.12512 8.54919 1.19297 8.3597 1.32003C8.17021 1.44709 8.02278 1.62763 7.93616 1.8387L6.33585 5.71151L2.1853 6.0469C1.95831 6.0661 1.74204 6.15185 1.56358 6.29342C1.38511 6.43499 1.2524 6.62607 1.18205 6.84273C1.11171 7.0594 1.10687 7.292 1.16813 7.5114C1.2294 7.7308 1.35405 7.92725 1.52647 8.07612L4.69053 10.8064L3.72655 14.8887C3.67264 15.1105 3.68584 15.3433 3.76447 15.5576C3.84311 15.7718 3.98364 15.9579 4.16822 16.0921C4.3528 16.2264 4.57312 16.3028 4.80119 16.3116C5.02926 16.3204 5.25481 16.2613 5.44921 16.1417L8.99999 13.9564L12.5529 16.1417C12.7473 16.2599 12.9724 16.3179 13.1998 16.3084C13.4272 16.2989 13.6466 16.2224 13.8306 16.0884C14.0145 15.9544 14.1548 15.769 14.2336 15.5556C14.3124 15.3421 14.3262 15.11 14.2734 14.8887L13.3059 10.8056L16.47 8.07542C16.6438 7.92679 16.7696 7.72992 16.8314 7.50975C16.8933 7.28958 16.8884 7.056 16.8173 6.83862ZM15.7387 7.22323L12.3145 10.1764C12.2364 10.2437 12.1783 10.3311 12.1466 10.4292C12.1149 10.5273 12.1107 10.6322 12.1345 10.7325L13.1808 15.1481C13.1835 15.1542 13.1837 15.1611 13.1815 15.1674C13.1793 15.1737 13.1747 15.1789 13.1688 15.1819C13.1562 15.1917 13.1526 15.1896 13.1421 15.1819L9.2946 12.8159C9.20599 12.7614 9.104 12.7326 8.99999 12.7326C8.89597 12.7326 8.79399 12.7614 8.70538 12.8159L4.85788 15.1833C4.84733 15.1896 4.84452 15.1917 4.83116 15.1833C4.82522 15.1803 4.82068 15.1751 4.81845 15.1688C4.81623 15.1625 4.8165 15.1556 4.81921 15.1496L5.86545 10.7339C5.8893 10.6336 5.88512 10.5287 5.85338 10.4306C5.82163 10.3325 5.76354 10.2451 5.68545 10.1778L2.26124 7.22463C2.2528 7.2176 2.24506 7.21127 2.2521 7.18948C2.25913 7.16768 2.26475 7.17049 2.2753 7.16909L6.76967 6.80627C6.87276 6.79743 6.97141 6.76033 7.05477 6.69905C7.13813 6.63777 7.20298 6.55468 7.24217 6.45893L8.97327 2.2676C8.97889 2.25565 8.981 2.25002 8.99788 2.25002C9.01475 2.25002 9.01686 2.25565 9.02249 2.2676L10.7578 6.45893C10.7974 6.55472 10.8626 6.63771 10.9464 6.69876C11.0301 6.7598 11.1291 6.79652 11.2324 6.80487L15.7268 7.16768C15.7373 7.16768 15.7437 7.16768 15.75 7.18807C15.7563 7.20846 15.75 7.2162 15.7387 7.22323Z" fill="white"/>
</svg>
