<svg width="46" height="40" viewBox="0 0 46 40" fill="none" xmlns="http://www.w3.org/2000/svg">
<path d="M40.4355 39.8534H46C46 39.8534 46 30.5905 46 30.2175C46 29.8445 45.7277 28.6546 45.1962 27.793C44.7732 27.1072 43.9597 26.4253 43.7742 26.301C43.5887 26.1766 26.7097 14.3649 26.7097 14.3649C26.7097 14.3649 26.0644 13.9381 25.5968 13.8054C25.2221 13.699 24.6075 13.681 24.6075 13.681H23C23 13.681 23 17.0532 23 19.2139C23.1797 19.3465 39.0753 30.5284 39.2608 30.6527C39.4462 30.777 39.954 31.2954 40.1882 31.8339C40.376 32.2658 40.4355 32.8907 40.4355 33.015V39.8534Z" fill="white"/>
<path d="M5.56452 39.8534H0C0 39.8534 0 30.6527 0 30.2797C0 29.9067 0.272305 28.6546 0.803763 27.793C1.2268 27.1072 2.04032 26.4253 2.22581 26.301C2.41129 26.1766 19.2903 14.3649 19.2903 14.3649C19.2903 14.3649 19.9356 13.9381 20.4032 13.8054C20.7779 13.699 21.3925 13.681 21.3925 13.681H23C23 13.681 23 17.0532 23 19.2139C22.8203 19.3465 6.92473 30.5284 6.73925 30.6527C6.55376 30.777 6.04596 31.2954 5.81183 31.8339C5.62403 32.2658 5.56452 32.8907 5.56452 33.015V39.8534Z" fill="white"/>
<path fill-rule="evenodd" clip-rule="evenodd" d="M0.061828 16.5987C0.061828 16.9717 0 26.1724 0 26.1724C0 26.1724 0.0618279 25.4264 0.927419 24.4317C1.79301 23.4371 5.56452 21.0125 5.56452 21.0125V19.334C5.56452 19.2097 5.62403 18.5848 5.81183 18.1528C6.04596 17.6143 6.55376 17.096 6.73925 16.9717C6.92473 16.8473 22.8203 5.66547 23 5.53289V0H21.3925C21.3925 0 20.7779 0.0179943 20.4032 0.124335C19.9356 0.257055 19.2903 0.68384 19.2903 0.68384C19.2903 0.68384 2.41129 12.4956 2.22581 12.62C2.04032 12.7443 1.2268 13.4261 0.803763 14.112C0.272305 14.9736 0.061828 16.2257 0.061828 16.5987Z" fill="white"/>
<path fill-rule="evenodd" clip-rule="evenodd" d="M45.9382 16.5987C45.9382 16.9717 46 26.1724 46 26.1724C46 26.1724 45.9382 25.4264 45.0726 24.4317C44.207 23.4371 40.4355 21.0125 40.4355 21.0125V19.334C40.4355 19.2097 40.376 18.5848 40.1882 18.1528C39.954 17.6143 39.4462 17.096 39.2608 16.9717C39.0753 16.8473 23.1797 5.66547 23 5.53289V0H24.6075C24.6075 0 25.2221 0.0179943 25.5968 0.124335C26.0644 0.257055 26.7097 0.68384 26.7097 0.68384C26.7097 0.68384 43.5887 12.4956 43.7742 12.62C43.9597 12.7443 44.7732 13.4261 45.1962 14.112C45.7277 14.9736 45.9382 16.2257 45.9382 16.5987Z" fill="white"/>
</svg>
