<svg width="1419" height="166" viewBox="0 0 1419 166" fill="none" xmlns="http://www.w3.org/2000/svg">
<path d="M127.622 4.09961V31.8818H80.6797V161H47.6816V31.8818H0.526367V4.09961H127.622ZM213.523 99.4746H179.674V161H147.634V4.09961H224.594C235.593 4.3125 244.038 5.66081 249.928 8.14453C255.889 10.6283 260.927 14.2829 265.043 19.1084C268.449 23.0824 271.146 27.4821 273.133 32.3076C275.12 37.1331 276.113 42.6328 276.113 48.8066C276.113 56.2578 274.233 63.6025 270.472 70.8408C266.711 78.0081 260.501 83.082 251.844 86.0625C259.082 88.972 264.191 93.1234 267.172 98.5166C270.223 103.839 271.749 112 271.749 122.999V133.537C271.749 140.704 272.033 145.565 272.601 148.12C273.452 152.165 275.439 155.146 278.562 157.062V161H242.477C241.483 157.523 240.773 154.72 240.348 152.591C239.496 148.191 239.035 143.685 238.964 139.072L238.751 124.489C238.609 114.483 236.764 107.813 233.216 104.478C229.739 101.142 223.174 99.4746 213.523 99.4746ZM233.429 70.9473C239.957 67.9668 243.222 62.0768 243.222 53.2773C243.222 43.7682 240.064 37.3815 233.748 34.1172C230.2 32.2721 224.878 31.3496 217.781 31.3496H179.674V73.502H216.823C224.203 73.502 229.739 72.6504 233.429 70.9473ZM396.29 128.747H338.49L327.633 161H293.357L349.348 4.09961H386.391L441.955 161H406.402L396.29 128.747ZM387.136 101.71L367.55 39.9717L347.325 101.71H387.136ZM529.56 161H461.967V4.09961H529.56C539.282 4.24154 547.371 5.37695 553.829 7.50586C564.828 11.125 573.734 17.7601 580.547 27.4111C586.011 35.2171 589.737 43.6618 591.724 52.7451C593.711 61.8285 594.704 70.486 594.704 78.7178C594.704 99.5811 590.517 117.251 582.144 131.728C570.789 151.243 553.261 161 529.56 161ZM553.936 44.123C548.897 35.6074 538.927 31.3496 524.024 31.3496H493.794V133.75H524.024C539.494 133.75 550.281 126.121 556.384 110.864C559.719 102.491 561.387 92.5202 561.387 80.9531C561.387 64.9863 558.903 52.7096 553.936 44.123ZM728.719 92.4492H652.504V132.792H739.363V161H620.464V4.09961H735.531V31.8818H652.504V65.1992H728.719V92.4492ZM934.797 92.4492H858.582V132.792H945.441V161H826.542V4.09961H941.609V31.8818H858.582V65.1992H934.797V92.4492ZM1038.58 161H970.988V4.09961H1038.58C1048.3 4.24154 1056.39 5.37695 1062.85 7.50586C1073.85 11.125 1082.76 17.7601 1089.57 27.4111C1095.03 35.2171 1098.76 43.6618 1100.75 52.7451C1102.73 61.8285 1103.73 70.486 1103.73 78.7178C1103.73 99.5811 1099.54 117.251 1091.17 131.728C1079.81 151.243 1062.28 161 1038.58 161ZM1062.96 44.123C1057.92 35.6074 1047.95 31.3496 1033.05 31.3496H1002.82V133.75H1033.05C1048.52 133.75 1059.3 126.121 1065.41 110.864C1068.74 102.491 1070.41 92.5202 1070.41 80.9531C1070.41 64.9863 1067.92 52.7096 1062.96 44.123ZM1224.75 157.168C1216.1 162.49 1205.45 165.151 1192.82 165.151C1172.03 165.151 1155 157.949 1141.73 143.543C1127.89 129.066 1120.97 109.268 1120.97 84.1465C1120.97 58.7415 1127.96 38.375 1141.94 23.0469C1155.92 7.71875 1174.41 0.0546875 1197.4 0.0546875C1217.34 0.0546875 1233.34 5.12858 1245.4 15.2764C1257.54 25.3532 1264.49 37.9492 1266.27 53.0645H1234.01C1231.53 42.349 1225.46 34.8623 1215.81 30.6045C1210.42 28.2627 1204.42 27.0918 1197.82 27.0918C1185.19 27.0918 1174.8 31.8818 1166.63 41.4619C1158.54 50.971 1154.5 65.3057 1154.5 84.4658C1154.5 103.768 1158.9 117.428 1167.7 125.447C1176.5 133.466 1186.5 137.476 1197.72 137.476C1208.72 137.476 1217.73 134.318 1224.75 128.002C1231.78 121.615 1236.11 113.277 1237.74 102.987H1201.44V76.8018H1266.8V161H1245.08L1241.79 141.414C1235.47 148.865 1229.79 154.117 1224.75 157.168ZM1407.41 92.4492H1331.2V132.792H1418.06V161H1299.16V4.09961H1414.23V31.8818H1331.2V65.1992H1407.41V92.4492Z" fill="white"/>
</svg>
