<svg width="136" height="37" viewBox="0 0 136 37" fill="none" xmlns="http://www.w3.org/2000/svg">
<path d="M0.884943 14V3.81818H4.96165C5.7107 3.81818 6.33546 3.92921 6.83594 4.15128C7.33641 4.37334 7.7126 4.68158 7.96449 5.07599C8.21638 5.46709 8.34233 5.91785 8.34233 6.42827C8.34233 6.82599 8.26278 7.17566 8.10369 7.47727C7.9446 7.77557 7.72585 8.02083 7.44744 8.21307C7.17235 8.40199 6.85748 8.53622 6.50284 8.61577V8.7152C6.89063 8.73177 7.25355 8.84115 7.59162 9.04332C7.933 9.2455 8.20975 9.52888 8.42188 9.89347C8.634 10.2547 8.74006 10.6856 8.74006 11.1861C8.74006 11.7263 8.60582 12.2086 8.33736 12.6328C8.07221 13.0537 7.67945 13.3868 7.15909 13.6321C6.63873 13.8774 5.9974 14 5.23509 14H0.884943ZM3.03764 12.2401H4.79261C5.39252 12.2401 5.83002 12.1257 6.10511 11.897C6.38021 11.665 6.51776 11.3568 6.51776 10.9723C6.51776 10.6906 6.44981 10.442 6.31392 10.2266C6.17803 10.0111 5.98414 9.84209 5.73224 9.71946C5.48366 9.59683 5.18703 9.53551 4.84233 9.53551H3.03764V12.2401ZM3.03764 8.07884H4.63352C4.9285 8.07884 5.19034 8.02746 5.41903 7.92472C5.65104 7.81866 5.83333 7.66951 5.96591 7.47727C6.1018 7.28504 6.16974 7.05469 6.16974 6.78622C6.16974 6.41832 6.03883 6.12169 5.77699 5.89631C5.51847 5.67093 5.15057 5.55824 4.6733 5.55824H3.03764V8.07884ZM12.2935 3.81818V14H10.1408V3.81818H12.2935ZM13.5128 16.456V12.2848H14.2038C14.4392 12.1158 14.6546 11.8771 14.8501 11.5689C15.0457 11.2573 15.2131 10.8281 15.3523 10.2812C15.4915 9.73106 15.5909 9.01184 15.6506 8.12358L15.9389 3.81818H22.6754V12.2848H23.7891V16.446H21.7209V14H15.581V16.456H13.5128ZM16.6896 12.2848H20.6072V5.59304H17.8778L17.7188 8.12358C17.6757 8.7964 17.6044 9.39299 17.505 9.91335C17.4089 10.4337 17.2912 10.8894 17.152 11.2805C17.0161 11.6683 16.862 12.0031 16.6896 12.2848ZM25.0978 14V3.81818H27.2505V8.01918H31.6206V3.81818H33.7683V14H31.6206V9.79403H27.2505V14H25.0978ZM44.8997 8.90909C44.8997 10.0194 44.6892 10.964 44.2683 11.7429C43.8507 12.5218 43.2806 13.1167 42.5581 13.5277C41.8388 13.9354 41.0301 14.1392 40.1319 14.1392C39.2271 14.1392 38.4151 13.9337 37.6958 13.5227C36.9766 13.1117 36.4082 12.5168 35.9906 11.7379C35.573 10.959 35.3642 10.0161 35.3642 8.90909C35.3642 7.79877 35.573 6.85417 35.9906 6.07528C36.4082 5.2964 36.9766 4.70312 37.6958 4.29545C38.4151 3.88447 39.2271 3.67898 40.1319 3.67898C41.0301 3.67898 41.8388 3.88447 42.5581 4.29545C43.2806 4.70312 43.8507 5.2964 44.2683 6.07528C44.6892 6.85417 44.8997 7.79877 44.8997 8.90909ZM42.7172 8.90909C42.7172 8.18987 42.6094 7.58333 42.394 7.08949C42.1819 6.59564 41.8819 6.22112 41.4941 5.96591C41.1064 5.7107 40.6523 5.5831 40.1319 5.5831C39.6116 5.5831 39.1575 5.7107 38.7697 5.96591C38.3819 6.22112 38.0803 6.59564 37.8649 7.08949C37.6528 7.58333 37.5467 8.18987 37.5467 8.90909C37.5467 9.62831 37.6528 10.2348 37.8649 10.7287C38.0803 11.2225 38.3819 11.5971 38.7697 11.8523C39.1575 12.1075 39.6116 12.2351 40.1319 12.2351C40.6523 12.2351 41.1064 12.1075 41.4941 11.8523C41.8819 11.5971 42.1819 11.2225 42.394 10.7287C42.6094 10.2348 42.7172 9.62831 42.7172 8.90909ZM46.4943 14V3.81818H50.571C51.3201 3.81818 51.9448 3.92921 52.4453 4.15128C52.9458 4.37334 53.322 4.68158 53.5739 5.07599C53.8258 5.46709 53.9517 5.91785 53.9517 6.42827C53.9517 6.82599 53.8722 7.17566 53.7131 7.47727C53.554 7.77557 53.3352 8.02083 53.0568 8.21307C52.7817 8.40199 52.4669 8.53622 52.1122 8.61577V8.7152C52.5 8.73177 52.8629 8.84115 53.201 9.04332C53.5424 9.2455 53.8191 9.52888 54.0312 9.89347C54.2434 10.2547 54.3494 10.6856 54.3494 11.1861C54.3494 11.7263 54.2152 12.2086 53.9467 12.6328C53.6816 13.0537 53.2888 13.3868 52.7685 13.6321C52.2481 13.8774 51.6068 14 50.8445 14H46.4943ZM48.647 12.2401H50.402C51.0019 12.2401 51.4394 12.1257 51.7145 11.897C51.9896 11.665 52.1271 11.3568 52.1271 10.9723C52.1271 10.6906 52.0592 10.442 51.9233 10.2266C51.7874 10.0111 51.5935 9.84209 51.3416 9.71946C51.093 9.59683 50.7964 9.53551 50.4517 9.53551H48.647V12.2401ZM48.647 8.07884H50.2429C50.5379 8.07884 50.7997 8.02746 51.0284 7.92472C51.2604 7.81866 51.4427 7.66951 51.5753 7.47727C51.7112 7.28504 51.7791 7.05469 51.7791 6.78622C51.7791 6.41832 51.6482 6.12169 51.3864 5.89631C51.1278 5.67093 50.7599 5.55824 50.2827 5.55824H48.647V8.07884ZM55.7502 14V3.81818H62.611V5.59304H57.9029V8.01918H62.258V9.79403H57.9029V12.2251H62.6309V14H55.7502ZM64.3224 3.81818H66.9773L69.7812 10.6591H69.9006L72.7045 3.81818H75.3594V14H73.2713V7.37287H73.1868L70.5518 13.9503H69.13L66.495 7.34801H66.4105V14H64.3224V3.81818ZM86.4895 8.90909C86.4895 10.0194 86.2791 10.964 85.8581 11.7429C85.4405 12.5218 84.8704 13.1167 84.1479 13.5277C83.4287 13.9354 82.62 14.1392 81.7218 14.1392C80.8169 14.1392 80.0049 13.9337 79.2857 13.5227C78.5665 13.1117 77.998 12.5168 77.5804 11.7379C77.1628 10.959 76.954 10.0161 76.954 8.90909C76.954 7.79877 77.1628 6.85417 77.5804 6.07528C77.998 5.2964 78.5665 4.70312 79.2857 4.29545C80.0049 3.88447 80.8169 3.67898 81.7218 3.67898C82.62 3.67898 83.4287 3.88447 84.1479 4.29545C84.8704 4.70312 85.4405 5.2964 85.8581 6.07528C86.2791 6.85417 86.4895 7.79877 86.4895 8.90909ZM84.307 8.90909C84.307 8.18987 84.1993 7.58333 83.9838 7.08949C83.7717 6.59564 83.4718 6.22112 83.084 5.96591C82.6962 5.7107 82.2421 5.5831 81.7218 5.5831C81.2014 5.5831 80.7473 5.7107 80.3596 5.96591C79.9718 6.22112 79.6702 6.59564 79.4547 7.08949C79.2426 7.58333 79.1365 8.18987 79.1365 8.90909C79.1365 9.62831 79.2426 10.2348 79.4547 10.7287C79.6702 11.2225 79.9718 11.5971 80.3596 11.8523C80.7473 12.1075 81.2014 12.2351 81.7218 12.2351C82.2421 12.2351 82.6962 12.1075 83.084 11.8523C83.4718 11.5971 83.7717 11.2225 83.9838 10.7287C84.1993 10.2348 84.307 9.62831 84.307 8.90909ZM91.3244 14V3.81818H93.4771V8.01918H97.8471V3.81818H99.9949V14H97.8471V9.79403H93.4771V14H91.3244ZM103.525 14H101.218L104.733 3.81818H107.507L111.017 14H108.71L106.16 6.14489H106.08L103.525 14ZM103.381 9.99787H108.829V11.6783H103.381V9.99787ZM112.65 3.81818H114.753V12.2699H117.676V3.81818H119.769V12.2699H122.658V3.81818H124.751V14H112.65V3.81818ZM128.025 14.1392V12.3892H128.577C128.852 12.3892 129.074 12.3561 129.243 12.2898C129.412 12.2202 129.546 12.1191 129.645 11.9865C129.748 11.8506 129.834 11.6816 129.904 11.4794L130.028 11.1463L126.329 3.81818H128.557L130.953 8.82955L132.956 3.81818H135.154L131.644 12.0014C131.475 12.3793 131.274 12.7306 131.042 13.0554C130.814 13.3802 130.52 13.642 130.162 13.8409C129.805 14.0398 129.347 14.1392 128.79 14.1392H128.025Z" fill="#222222"/>
<path d="M18.9901 34L15.7884 29.7741H15.2315V34H12.7706V23.8182H15.2315V27.7706H15.6243L18.7763 23.8182H21.8537L17.9311 28.6257L22.0575 34H18.9901ZM22.9561 34V23.8182H27.1621C27.9244 23.8182 28.5823 23.9673 29.1358 24.2656C29.6926 24.5606 30.1219 24.9732 30.4235 25.5036C30.7251 26.0305 30.8759 26.6437 30.8759 27.343C30.8759 28.0457 30.7218 28.6605 30.4135 29.1875C30.1086 29.7112 29.6728 30.1172 29.106 30.4055C28.5392 30.6939 27.8664 30.8381 27.0875 30.8381H24.4924V28.8991H26.6301C27.0014 28.8991 27.3113 28.8345 27.5598 28.7053C27.8117 28.576 28.0023 28.3954 28.1316 28.1634C28.2608 27.928 28.3255 27.6546 28.3255 27.343C28.3255 27.0282 28.2608 26.7564 28.1316 26.5277C28.0023 26.2957 27.8117 26.1167 27.5598 25.9908C27.3079 25.8648 26.998 25.8018 26.6301 25.8018H25.4171V34H22.9561ZM33.0609 34H30.416L33.8514 23.8182H37.1277L40.563 34H37.9181L35.5268 26.3835H35.4473L33.0609 34ZM32.7079 29.9929H38.2363V31.8622H32.7079V29.9929ZM44.1202 23.8182V34H41.6593V23.8182H44.1202ZM41.356 22.8487C41.0444 22.8487 40.7793 22.7427 40.5605 22.5305C40.3385 22.3184 40.2275 22.0632 40.2275 21.7649C40.2275 21.4666 40.3385 21.2131 40.5605 21.0043C40.7793 20.7921 41.0444 20.6861 41.356 20.6861C41.6642 20.6861 41.9261 20.7921 42.1415 21.0043C42.3603 21.2131 42.4696 21.4666 42.4696 21.7649C42.4696 22.0632 42.3603 22.3184 42.1415 22.5305C41.9261 22.7427 41.6642 22.8487 41.356 22.8487ZM44.4583 22.8487C44.1467 22.8487 43.8799 22.7427 43.6578 22.5305C43.4391 22.3184 43.3297 22.0632 43.3297 21.7649C43.3297 21.4666 43.4391 21.2131 43.6578 21.0043C43.8799 20.7921 44.1467 20.6861 44.4583 20.6861C44.7665 20.6861 45.0283 20.7921 45.2438 21.0043C45.4625 21.2131 45.5719 21.4666 45.5719 21.7649C45.5719 22.0632 45.4625 22.3184 45.2438 22.5305C45.0283 22.7427 44.7665 22.8487 44.4583 22.8487ZM45.6651 34V23.8182H48.1261V27.9048H52.1381V23.8182H54.5941V34H52.1381V29.9084H48.1261V34H45.6651ZM57.4254 34.1392V32.1903H57.9474C58.2292 32.1903 58.4545 32.1622 58.6236 32.1058C58.7959 32.0462 58.9302 31.9517 59.0263 31.8224C59.1257 31.6932 59.2086 31.5208 59.2749 31.3054L59.3892 30.9922L55.6307 23.8182H58.1562L60.4183 28.392L62.2379 23.8182H64.7237L61.2237 31.8871C61.0414 32.2848 60.826 32.656 60.5774 33.0007C60.3288 33.3421 60.0156 33.6172 59.6378 33.826C59.2633 34.0348 58.791 34.1392 58.2209 34.1392H57.4254ZM68.7706 34V23.8182H72.9766C73.7389 23.8182 74.3968 23.9673 74.9503 24.2656C75.5071 24.5606 75.9363 24.9732 76.2379 25.5036C76.5395 26.0305 76.6903 26.6437 76.6903 27.343C76.6903 28.0457 76.5362 28.6605 76.228 29.1875C75.9231 29.7112 75.4872 30.1172 74.9205 30.4055C74.3537 30.6939 73.6809 30.8381 72.902 30.8381H70.3068V28.8991H72.4446C72.8158 28.8991 73.1257 28.8345 73.3743 28.7053C73.6262 28.576 73.8168 28.3954 73.946 28.1634C74.0753 27.928 74.1399 27.6546 74.1399 27.343C74.1399 27.0282 74.0753 26.7564 73.946 26.5277C73.8168 26.2957 73.6262 26.1167 73.3743 25.9908C73.1224 25.8648 72.8125 25.8018 72.4446 25.8018H71.2315V34H68.7706ZM78.8754 34H76.2305L79.6658 23.8182H82.9421L86.3775 34H83.7326L81.3413 26.3835H81.2617L78.8754 34ZM78.5224 29.9929H84.0508V31.8622H78.5224V29.9929ZM91.3267 34.1392C90.5511 34.1392 89.8634 34.0066 89.2635 33.7415C88.6669 33.473 88.1963 33.1035 87.8516 32.6328C87.5069 32.1622 87.3312 31.6203 87.3246 31.0071H89.8004C89.8104 31.2292 89.8816 31.4264 90.0142 31.5987C90.1468 31.7678 90.3274 31.9003 90.5561 31.9964C90.7848 32.0926 91.045 32.1406 91.3366 32.1406C91.6283 32.1406 91.8852 32.0893 92.1072 31.9865C92.3326 31.8804 92.5083 31.7363 92.6342 31.554C92.7602 31.3684 92.8215 31.1562 92.8182 30.9176C92.8215 30.679 92.7536 30.4669 92.6143 30.2812C92.4751 30.0956 92.2779 29.9515 92.0227 29.8487C91.7708 29.746 91.4725 29.6946 91.1278 29.6946H90.1385V27.9446H91.1278C91.4295 27.9446 91.6946 27.8949 91.9233 27.7955C92.1553 27.696 92.3359 27.5568 92.4652 27.3778C92.5945 27.1955 92.6574 26.9867 92.6541 26.7514C92.6574 26.5227 92.6027 26.3222 92.4901 26.1499C92.3807 25.9742 92.2266 25.8383 92.0277 25.7422C91.8321 25.6461 91.6051 25.598 91.3466 25.598C91.0748 25.598 90.8279 25.6461 90.6058 25.7422C90.3871 25.8383 90.2131 25.9742 90.0838 26.1499C89.9545 26.3255 89.8866 26.5294 89.88 26.7614H87.5284C87.535 26.1548 87.7041 25.6212 88.0355 25.1605C88.367 24.6965 88.8177 24.3336 89.3878 24.0717C89.9612 23.8099 90.6141 23.679 91.3466 23.679C92.0758 23.679 92.7171 23.8066 93.2706 24.0618C93.8241 24.317 94.255 24.665 94.5632 25.1058C94.8714 25.5433 95.0256 26.0388 95.0256 26.5923C95.0289 27.1657 94.8416 27.638 94.4638 28.0092C94.0893 28.3804 93.607 28.6091 93.017 28.6953V28.7749C93.8059 28.8677 94.4008 29.1229 94.8018 29.5405C95.2062 29.9581 95.4067 30.4801 95.4034 31.1065C95.4034 31.6965 95.2294 32.2202 94.8814 32.6776C94.5367 33.1316 94.0561 33.4896 93.4396 33.7514C92.8265 34.0099 92.1222 34.1392 91.3267 34.1392ZM106.422 28.9091C106.422 30.0294 106.206 30.9789 105.775 31.7578C105.345 32.5367 104.761 33.1283 104.025 33.5327C103.293 33.937 102.471 34.1392 101.559 34.1392C100.645 34.1392 99.8211 33.9354 99.0886 33.5277C98.3561 33.12 97.7744 32.5284 97.3436 31.7528C96.916 30.974 96.7022 30.026 96.7022 28.9091C96.7022 27.7888 96.916 26.8393 97.3436 26.0604C97.7744 25.2815 98.3561 24.6899 99.0886 24.2855C99.8211 23.8812 100.645 23.679 101.559 23.679C102.471 23.679 103.293 23.8812 104.025 24.2855C104.761 24.6899 105.345 25.2815 105.775 26.0604C106.206 26.8393 106.422 27.7888 106.422 28.9091ZM103.906 28.9091C103.906 28.2462 103.812 27.6861 103.623 27.2287C103.437 26.7713 103.169 26.425 102.817 26.1896C102.469 25.9543 102.05 25.8366 101.559 25.8366C101.072 25.8366 100.653 25.9543 100.302 26.1896C99.9503 26.425 99.6802 26.7713 99.4913 27.2287C99.3057 27.6861 99.2129 28.2462 99.2129 28.9091C99.2129 29.572 99.3057 30.1321 99.4913 30.5895C99.6802 31.0469 99.9503 31.3932 100.302 31.6286C100.653 31.8639 101.072 31.9815 101.559 31.9815C102.05 31.9815 102.469 31.8639 102.817 31.6286C103.169 31.3932 103.437 31.0469 103.623 30.5895C103.812 30.1321 103.906 29.572 103.906 28.9091ZM107.858 23.8182H110.906L113.491 30.1222H113.611L116.196 23.8182H119.243V34H116.847V27.7457H116.763L114.317 33.9354H112.785L110.339 27.7109H110.255V34H107.858V23.8182Z" fill="#F5A200"/>
</svg>
